<svg xmlns="http://www.w3.org/2000/svg" xmlns:xlink="http://www.w3.org/1999/xlink" x="0px" y="0px" width="100px" height="100px" viewBox="0 0 100 100" enable-background="new 0 0 100 100" xml:space="preserve">
		<path fill="#58595B" stroke="#231F20" d="M87.533,64.877c0,5.16-17.037,9.344-38.054,9.344 c-21.017,0-38.055-4.184-38.055-9.344c0-5.162,30.641-21.73,38.055-21.73S87.533,59.715,87.533,64.877z"/>
		<path fill="none" stroke="#231F20" d="M46.19,38.957c1.819-0.392,2.745-1.155,3.7-1.873 c1.382-1.039,2.137-2.995,2.236-4.698c0.177-3.111-3.401-6.081-5.197-8.329c-0.784-0.981-1.897-2.185-2.165-3.479 c-0.282-1.361,0.575-2.979,1.314-4.065c0.708-1.042,3.477-2.989,3.925-4.167c0.563-1.479,0.741-4.857-1.439-6.475"/>
</svg>
