<svg xmlns="http://www.w3.org/2000/svg" xmlns:xlink="http://www.w3.org/1999/xlink" x="0" y="0" width="100" height="100" viewBox="-50 -50 100 100">
	<g transform = 'scale(0.8)'>
		<polygon fill="#282828" stroke="black" points="32.136,-2.181 44.506,-14.402 39.377,-22.7 39.83,-34.694 22.782,-47.971 -2.112,-57.25 -13.428,-44.728 -31.759,-36.127 -37.644,-9.423 -28.365,-1.878 -1.132,-0.597"/>
		<polygon fill="#8C8C8C" stroke="none" points="-11.165,-17.267 -13.428,-44.728 -2.112,-57.25 22.782,-47.971 9.278,-26.094"/>
		<polygon fill="#646464" stroke="none" points="-31.759,-36.127 -37.644,-9.423 -28.365,-1.878 -15.012,-9.197 -11.165,-17.267"/>
		<polygon fill="#787878" stroke="none" points="15.54,-15.91 25.724,-15.232 32.136,-2.181"/>
		<polygon fill="#282828" stroke="none" points="-1.132,-0.597 15.54,-15.91 32.136,-2.181"/>
		<polygon fill="#3C3C3C" stroke="none" points="39.377,-22.7 25.724,-15.232 32.136,-2.181 44.506,-14.402"/>
		<polygon fill="#A0A0A0" stroke="none" points="-13.428,-44.728 -31.759,-36.127 -11.165,-17.267"/>
		<polygon fill="#646464" stroke="none" points="22.782,-47.971 9.278,-26.094 15.54,-15.91 25.724,-15.232 39.377,-22.7 39.83,-34.694"/>
		<polygon fill="#505050" stroke="none" points="-15.012,-9.197 -1.132,-0.597 15.54,-15.91 9.278,-26.094 -11.165,-17.267"/>
		<polygon fill="#282828" stroke="none" points="-28.365,-1.878 -1.132,-0.597 -15.012,-9.197"/>
	</g>
</svg>