<?xml version="1.0" encoding="utf-8"?>
<!-- Generator: Adobe Illustrator 15.1.0, SVG Export Plug-In . SVG Version: 6.00 Build 0)  -->
<!DOCTYPE svg PUBLIC "-//W3C//DTD SVG 1.1//EN" "http://www.w3.org/Graphics/SVG/1.1/DTD/svg11.dtd">
<svg version="1.1" id="Layer_1" xmlns="http://www.w3.org/2000/svg" xmlns:xlink="http://www.w3.org/1999/xlink" x="0px" y="0px"
	 width="100px" height="100px" viewBox="0 0 100 100" enable-background="new 0 0 100 100" xml:space="preserve">
<polygon fill="#C49A6C" stroke="#231F20" stroke-linecap="round" stroke-linejoin="round" stroke-miterlimit="10" points="
	69.995,53.682 83.619,50.183 97.242,53.682 83.619,57.182 "/>
<polygon fill="#8B5E3C" stroke="#231F20" stroke-linecap="round" stroke-linejoin="round" stroke-miterlimit="10" points="
	97.242,53.682 83.619,57.182 83.619,71.742 97.242,68.242 "/>
<polygon fill="#A97C50" stroke="#231F20" stroke-linecap="round" stroke-linejoin="round" stroke-miterlimit="10" points="
	69.995,53.682 83.619,57.182 83.619,71.742 69.995,68.242 "/>
<polygon fill="#C49A6C" stroke="#231F20" stroke-linecap="round" stroke-linejoin="round" stroke-miterlimit="10" points="
	38.507,13.481 52.131,9.982 65.754,13.481 52.131,16.981 "/>
<polygon fill="#8B5E3C" stroke="#231F20" stroke-linecap="round" stroke-linejoin="round" stroke-miterlimit="10" points="
	65.754,13.481 52.131,16.981 52.131,31.542 65.754,28.042 "/>
<polygon fill="#A97C50" stroke="#231F20" stroke-linecap="round" stroke-linejoin="round" stroke-miterlimit="10" points="
	38.507,13.481 52.131,16.981 52.131,31.542 38.507,28.042 "/>
<polygon fill="#C49A6C" stroke="#231F20" stroke-linecap="round" stroke-linejoin="round" stroke-miterlimit="10" points="
	0.647,50.183 28.745,42.965 56.844,50.183 28.745,57.4 "/>
<polygon fill="#754C29" stroke="#231F20" stroke-linecap="round" stroke-linejoin="round" stroke-miterlimit="10" points="
	56.844,50.182 28.745,57.398 28.745,87.432 56.844,80.215 "/>
<polygon fill="#A97C50" stroke="#231F20" stroke-linecap="round" stroke-linejoin="round" stroke-miterlimit="10" points="
	0.647,50.182 28.745,57.398 28.745,87.432 0.647,80.215 "/>
<polygon fill="#C49A6C" stroke="#231F20" stroke-linecap="round" stroke-linejoin="round" stroke-miterlimit="10" points="
	43.156,62.355 71.254,55.139 99.353,62.355 71.254,69.574 "/>
<polygon fill="#8B5E3C" stroke="#231F20" stroke-linecap="round" stroke-linejoin="round" stroke-miterlimit="10" points="
	99.353,62.355 71.254,69.572 71.254,99.605 99.353,92.387 "/>
<polygon fill="#A97C50" stroke="#231F20" stroke-linecap="round" stroke-linejoin="round" stroke-miterlimit="10" points="
	43.156,62.355 71.254,69.572 71.254,99.605 43.156,92.387 "/>
<polygon fill="#C49A6C" stroke="#231F20" stroke-linecap="round" stroke-linejoin="round" stroke-miterlimit="10" points="
	11.259,36.304 24.882,32.805 38.506,36.304 24.882,39.804 "/>
<polygon fill="#754C29" stroke="#231F20" stroke-linecap="round" stroke-linejoin="round" stroke-miterlimit="10" points="
	38.506,36.304 24.882,39.803 24.882,54.364 38.506,50.865 "/>
<polygon fill="#A97C50" stroke="#231F20" stroke-linecap="round" stroke-linejoin="round" stroke-miterlimit="10" points="
	11.259,36.304 24.882,39.803 24.882,54.364 11.259,50.865 "/>
<polygon fill="#C49A6C" stroke="#231F20" stroke-linecap="round" stroke-linejoin="round" stroke-miterlimit="10" points="
	9.131,19.994 22.754,16.495 36.378,19.994 22.754,23.494 "/>
<polygon fill="#754C29" stroke="#231F20" stroke-linecap="round" stroke-linejoin="round" stroke-miterlimit="10" points="
	36.378,19.994 22.754,23.493 22.754,38.054 36.378,34.555 "/>
<polygon fill="#A97C50" stroke="#231F20" stroke-linecap="round" stroke-linejoin="round" stroke-miterlimit="10" points="
	9.131,19.994 22.754,23.493 22.754,38.054 9.131,34.555 "/>
<polygon fill="#C49A6C" stroke="#231F20" stroke-linecap="round" stroke-linejoin="round" stroke-miterlimit="10" points="
	33.049,24.476 61.146,17.258 89.245,24.476 61.146,31.694 "/>
<polygon fill="#8B5E3C" stroke="#231F20" stroke-linecap="round" stroke-linejoin="round" stroke-miterlimit="10" points="
	89.245,24.475 61.146,31.692 61.146,61.725 89.245,54.508 "/>
<polygon fill="#A97C50" stroke="#231F20" stroke-linecap="round" stroke-linejoin="round" stroke-miterlimit="10" points="
	33.049,24.475 61.146,31.692 61.146,61.725 33.049,54.508 "/>
<polygon fill="#C49A6C" stroke="#231F20" stroke-linecap="round" stroke-linejoin="round" stroke-miterlimit="10" points="
	29.171,6.416 42.794,2.917 56.418,6.416 42.794,9.916 "/>
<polygon fill="#8B5E3C" stroke="#231F20" stroke-linecap="round" stroke-linejoin="round" stroke-miterlimit="10" points="
	56.418,6.416 42.794,9.915 42.794,24.476 56.418,20.977 "/>
<polygon fill="#A97C50" stroke="#231F20" stroke-linecap="round" stroke-linejoin="round" stroke-miterlimit="10" points="
	29.171,6.416 42.794,9.915 42.794,24.476 29.171,20.977 "/>
<polygon fill="#C49A6C" stroke="#231F20" stroke-linecap="round" stroke-linejoin="round" stroke-miterlimit="10" points="
	5.802,78.643 19.425,75.145 33.049,78.643 19.425,82.143 "/>
<polygon fill="#8B5E3C" stroke="#231F20" stroke-linecap="round" stroke-linejoin="round" stroke-miterlimit="10" points="
	33.049,78.643 19.425,82.143 19.425,96.703 33.049,93.203 "/>
<polygon fill="#A97C50" stroke="#231F20" stroke-linecap="round" stroke-linejoin="round" stroke-miterlimit="10" points="
	5.802,78.643 19.425,82.143 19.425,96.703 5.802,93.203 "/>
<polygon fill="#C49A6C" stroke="#231F20" stroke-linecap="round" stroke-linejoin="round" stroke-miterlimit="10" points="
	10.414,63.529 24.038,60.031 37.661,63.529 24.038,67.029 "/>
<polygon fill="#8B5E3C" stroke="#231F20" stroke-linecap="round" stroke-linejoin="round" stroke-miterlimit="10" points="
	37.661,63.529 24.038,67.029 24.038,81.59 37.661,78.09 "/>
<polygon fill="#A97C50" stroke="#231F20" stroke-linecap="round" stroke-linejoin="round" stroke-miterlimit="10" points="
	10.414,63.529 24.038,67.029 24.038,81.59 10.414,78.09 "/>
</svg>
