<svg xmlns="http://www.w3.org/2000/svg" xmlns:xlink="http://www.w3.org/1999/xlink" x="0" y="0" width="100" height="200" viewBox="-50 -150 100 200">
	<g stroke='black'>
		<rect x="-0.833" y="-127.667" fill="#C49A6C" width="1.5" height="25.167"/>
		<path fill="#009444" d="M9.312-121.777c-0.207-1.757,3.896-2.157,4.197-3.344l-0.442,5.309C13.066-119.812,9.519-120.021,9.312-121.777z"/>
		<path fill="#006838" d="M9.312-121.777c0.449,3.8,14.366-1.579,16.832-2.016c-2.629,3.493-9.473,7.926-16.144,7.419C9.954-117.874,8.674-120.249,9.312-121.777z"/>
		<path fill="#006838" d="M0.579-119.201c1.609-0.412,3.479-0.484,5.191-0.494c1.156-0.007,2.416-0.028,3.525,0.188l-0.137-2.087c-0.272-2.309,7.137-2.444,3.192-4.824c-2.276-1.375-8.948-0.582-11.738-0.386L0.579-119.201z"/>
		<circle fill="#FBB040" cx="-0.083" cy="-129.221" r="1.554"/>
		<polyline fill="#622130" points="-3.06,-17.144 27.996,-17.144 29.71,-2.601 25.619,11.859 -25.759,11.859 -29.851,-2.601 -28.136,-17.144 2.921,-17.144"/>
		<polygon fill="#622130" points="27.996,-17.144 22.816,-2.685 -22.957,-2.685 -28.136,-17.144"/>
		<polygon fill="#3A1414" points="-15.818,-101.5 -12.711,-106.666 -18.691,-8.122 -22.938,-14.783"/>
		<polygon fill="#622130" points="18.551,-8.122 12.569,-106.666 -0.07,-106.666 -12.711,-106.666 -18.691,-8.122"/>
		<polygon fill="#622130" points="15.678,-101.5 12.569,-106.666 18.551,-8.122 22.797,-14.783"/>
		<polygon fill="#3A1414" points="-22.957,-2.685 -28.136,-17.144 -29.851,-2.601 -25.759,11.859"/>
	</g>
</svg>