<?xml version="1.0" encoding="utf-8"?>
<!-- Generator: Adobe Illustrator 15.1.0, SVG Export Plug-In . SVG Version: 6.00 Build 0)  -->
<!DOCTYPE svg PUBLIC "-//W3C//DTD SVG 1.1//EN" "http://www.w3.org/Graphics/SVG/1.1/DTD/svg11.dtd">
<svg version="1.1" id="Layer_1" xmlns="http://www.w3.org/2000/svg" xmlns:xlink="http://www.w3.org/1999/xlink" x="0px" y="0px"
	 width="100px" height="100px" viewBox="0 0 100 100" enable-background="new 0 0 100 100" xml:space="preserve">
<ellipse transform="matrix(0.9053 -0.4249 0.4249 0.9053 2.2594 35.4404)" fill="#D1D3D4" stroke="#231F20" stroke-width="1.0311" stroke-linecap="round" stroke-miterlimit="10" cx="80.595" cy="12.654" rx="7.754" ry="11.962"/>
<ellipse transform="matrix(0.9053 -0.4249 0.4249 0.9053 1.7256 34.7115)" fill="#A7A9AC" stroke="#231F20" stroke-width="0.9139" stroke-linecap="round" stroke-miterlimit="10" cx="78.695" cy="13.487" rx="6.873" ry="10.603"/>
<path fill="#D1D3D4" stroke="#231F20" stroke-width="0.9139" stroke-miterlimit="10" d="M41.978,15.393
	c-0.312,0-0.626-0.106-0.884-0.323c-0.578-0.489-0.651-1.354-0.162-1.933c6.292-7.448,27.781-9.866,32.279-8.542
	c0.727,0.213,1.143,0.975,0.928,1.702c-0.213,0.726-0.98,1.142-1.7,0.928c-3.886-1.139-23.979,1.25-29.412,7.682
	C42.754,15.227,42.368,15.393,41.978,15.393z"/>
<path fill="#D1D3D4" stroke="#231F20" stroke-width="0.9139" stroke-miterlimit="10" d="M39.815,27.082
	c-0.263,0-0.528-0.075-0.762-0.233c-0.629-0.422-0.796-1.273-0.375-1.902C42.934,18.6,60.125,10.923,71.213,9.09
	c0.749-0.124,1.453,0.382,1.576,1.129s-0.382,1.453-1.128,1.576c-11.402,1.885-27.187,9.43-30.706,14.678
	C40.691,26.868,40.257,27.082,39.815,27.082z"/>
<path fill="#939598" stroke="#231F20" stroke-width="0.9139" stroke-miterlimit="10" d="M83.335,82.53c0,0,0,2.346,0,3.521
	c0,3.063-14.073,5.549-31.432,5.549c-17.361,0-31.434-2.485-31.434-5.549c0-1.452,0-3.521,0-3.521"/>
<ellipse fill="#D1D3D4" stroke="#231F20" stroke-width="0.9139" stroke-miterlimit="10" cx="51.902" cy="82.53" rx="31.433" ry="5.548"/>
<path fill="#D1D3D4" stroke="#231F20" stroke-width="0.9139" stroke-miterlimit="10" d="M44.899,79.242
	c-0.042,0-0.083-0.002-0.124-0.005c-0.754-0.067-1.311-0.734-1.244-1.488c2.856-31.907,15.993-46.61,29.415-60.07
	c0.535-0.536,1.403-0.538,1.939-0.002c0.537,0.534,0.538,1.402,0.002,1.938C61.822,32.719,49.038,47,46.263,77.993
	C46.199,78.705,45.601,79.242,44.899,79.242z"/>
<path fill="#D1D3D4" stroke="#231F20" stroke-width="0.9139" stroke-miterlimit="10" d="M56.931,79.205
	c-0.028,0-0.058,0-0.086-0.002c-0.757-0.048-1.329-0.7-1.283-1.454c1.511-24.068,15.341-44.255,22.771-55.715
	c0.411-0.635,1.261-0.815,1.896-0.405c0.636,0.412,0.815,1.261,0.405,1.896c-7.293,11.249-20.87,31.044-22.335,54.395
	C58.254,78.646,57.65,79.205,56.931,79.205z"/>
<path fill="#D1D3D4" stroke="#231F20" stroke-width="0.9139" stroke-miterlimit="10" d="M68.229,79.737
	c-0.206,0-0.417-0.048-0.615-0.146c-0.677-0.341-0.725-1.095-0.606-1.842c1.009-6.397,3.889-19.739,4.45-25.848
	c0.425-4.625,2.435-8.536,4.562-12.675c2.453-4.773,4.989-9.71,5.711-16.589c0.08-0.753,0.766-1.299,1.507-1.22
	c0.753,0.079,1.299,0.753,1.221,1.506c-0.775,7.39-3.551,12.792-6,17.557c-2.09,4.066-3.893,7.577-4.27,11.672
	c-1.037,11.3-3.802,19.676-4.731,26.83C69.387,79.514,68.731,79.737,68.229,79.737z"/>
<path fill="#D1D3D4" stroke="#231F20" stroke-width="0.9139" stroke-miterlimit="10" d="M41.507,45.02
	c-0.224,0-0.45-0.055-0.66-0.17c-0.663-0.365-0.905-1.199-0.54-1.863c8.094-14.702,18.426-24.133,31.586-28.83
	c0.712-0.255,1.496,0.117,1.751,0.83c0.255,0.713-0.118,1.497-0.83,1.751C60.313,21.202,50.466,30.22,42.708,44.31
	C42.459,44.764,41.99,45.02,41.507,45.02z"/>
<path fill="#D1D3D4" stroke="#231F20" stroke-width="0.9139" stroke-miterlimit="10" d="M42.443,86.262
	c-0.63,0-1.196-0.436-1.337-1.076l-1.873-8.505c-0.163-0.739,0.305-1.47,1.044-1.633c0.742-0.164,1.471,0.306,1.634,1.045
	l1.872,8.503c0.163,0.739-0.304,1.472-1.043,1.634C42.64,86.251,42.541,86.262,42.443,86.262z"/>
<path fill="#D1D3D4" stroke="#231F20" stroke-width="0.9139" stroke-miterlimit="10" d="M49.185,86.262
	c-0.131,0-0.265-0.02-0.396-0.059c-0.725-0.22-1.135-0.984-0.917-1.709l2.697-8.937c0.219-0.724,0.983-1.136,1.709-0.915
	c0.724,0.22,1.134,0.983,0.916,1.709l-2.698,8.935C50.318,85.879,49.773,86.262,49.185,86.262z"/>
<path fill="#D1D3D4" stroke="#231F20" stroke-width="0.9139" stroke-miterlimit="10" d="M57.754,86.262
	c-0.122,0-0.245-0.017-0.365-0.05c-0.73-0.202-1.159-0.956-0.957-1.686l4.911-17.822c0.202-0.729,0.959-1.152,1.687-0.958
	c0.729,0.201,1.158,0.957,0.958,1.688l-4.912,17.821C58.906,85.861,58.355,86.262,57.754,86.262z"/>
<path fill="#D1D3D4" stroke="#231F20" stroke-width="0.9139" stroke-miterlimit="10" d="M33.874,85.462
	c-0.675,0-1.263-0.5-1.356-1.187l-1.713-12.682c-0.102-0.751,0.424-1.442,1.175-1.542c0.751-0.106,1.44,0.425,1.542,1.175
	l1.714,12.681c0.102,0.75-0.425,1.44-1.175,1.542C33.998,85.458,33.936,85.462,33.874,85.462z"/>
<path fill="#D1D3D4" stroke="#231F20" stroke-width="0.9139" stroke-miterlimit="10" d="M24.278,82.948
	c-0.696,0-1.292-0.53-1.362-1.236l-2.97-30.231c-0.074-0.753,0.477-1.423,1.23-1.497c0.747-0.077,1.424,0.476,1.498,1.229
	l2.971,30.23c0.074,0.753-0.477,1.425-1.231,1.498C24.369,82.946,24.323,82.948,24.278,82.948z"/>
<path fill="#D1D3D4" stroke="#231F20" stroke-width="0.9139" stroke-miterlimit="10" d="M28.619,84.89
	c-0.701,0-1.298-0.535-1.363-1.245l-1.558-17.058c-0.069-0.754,0.487-1.421,1.241-1.49c0.75-0.068,1.42,0.486,1.489,1.24
	l1.558,17.058c0.069,0.754-0.486,1.421-1.241,1.49C28.703,84.889,28.661,84.89,28.619,84.89z"/>
<path fill="#D1D3D4" stroke="#231F20" stroke-width="0.9139" stroke-miterlimit="10" d="M64.723,86.262
	c-0.07,0-0.139-0.006-0.211-0.017c-0.748-0.116-1.261-0.815-1.146-1.563l5.712-37.128c0.116-0.749,0.809-1.268,1.563-1.146
	c0.748,0.115,1.262,0.815,1.146,1.563L66.075,85.1C65.973,85.775,65.389,86.262,64.723,86.262z"/>
<path fill="#D1D3D4" stroke="#231F20" stroke-width="0.9139" stroke-miterlimit="10" d="M71.92,85.462
	c-0.045,0-0.092-0.002-0.136-0.007c-0.754-0.076-1.305-0.747-1.23-1.5l3.999-40.441c0.074-0.753,0.757-1.297,1.499-1.229
	c0.753,0.075,1.304,0.746,1.23,1.499l-3.998,40.441C73.212,84.934,72.616,85.462,71.92,85.462z"/>
<path fill="#D1D3D4" stroke="#231F20" stroke-width="0.9139" stroke-miterlimit="10" d="M53.516,14.915
	c-0.344,0-0.689-0.129-0.956-0.389c-0.541-0.529-0.554-1.397-0.024-1.939c4.903-5.028,20.199-8.68,26.293-7.953
	c0.751,0.089,1.288,0.772,1.198,1.523c-0.09,0.752-0.768,1.289-1.523,1.198c-5.311-0.633-19.893,2.927-24.005,7.146
	C54.23,14.776,53.873,14.915,53.516,14.915z"/>
<path fill="#D1D3D4" stroke="#231F20" stroke-width="0.9139" stroke-miterlimit="10" d="M64.369,19.256
	c-0.368,0-0.737-0.148-1.007-0.441c-0.514-0.556-0.479-1.424,0.077-1.937c5.646-5.211,10.352-8.379,17.694-9.152
	c0.757-0.08,1.428,0.466,1.507,1.22c0.079,0.753-0.468,1.428-1.22,1.507c-5.815,0.612-10.033,2.821-16.122,8.44
	C65.036,19.136,64.703,19.256,64.369,19.256z"/>
<path fill="#D1D3D4" stroke="#231F20" stroke-width="0.9139" stroke-miterlimit="10" d="M73.622,27.71
	c-0.354,0-0.711-0.139-0.979-0.414c-0.529-0.542-0.519-1.41,0.023-1.938c4.549-4.439,8.485-10.016,9.802-13.877
	c0.245-0.717,1.024-1.102,1.74-0.856c0.716,0.244,1.1,1.023,0.855,1.74c-1.778,5.223-6.759,11.321-10.482,14.955
	C74.313,27.58,73.969,27.71,73.622,27.71z"/>
<path fill="#D1D3D4" stroke="#231F20" stroke-width="0.9139" stroke-miterlimit="10" d="M79.484,82.948
	c-0.035,0-0.07-0.002-0.107-0.005c-0.754-0.059-1.318-0.718-1.259-1.473l2.877-36.94l0.487-0.372
	c6.197-4.731,5.938-15.56,2.144-22.879c-0.348-0.673-0.086-1.5,0.587-1.848c0.672-0.35,1.498-0.086,1.849,0.586
	c4.299,8.296,4.503,20.107-2.427,25.929l-2.784,35.736C80.796,82.402,80.193,82.948,79.484,82.948z"/>
<path fill="#D1D3D4" stroke="#231F20" stroke-width="0.9139" stroke-miterlimit="10" d="M37.117,79.737
	c-0.697,0-1.294-0.53-1.363-1.239c-1.983-20.545-8.532-34.946-13.789-38.937c-3.793-2.879-5.507-10.522-4.974-16.248
	c0.442-4.755,2.286-8.173,5.19-9.625c0.677-0.337,1.501-0.064,1.839,0.614c0.338,0.677,0.064,1.5-0.613,1.839
	c-1.997,0.998-3.34,3.705-3.687,7.427c-0.512,5.492,1.275,11.816,3.902,13.81c5.863,4.451,12.779,19.306,14.86,40.855
	c0.073,0.754-0.479,1.423-1.233,1.496C37.206,79.735,37.162,79.737,37.117,79.737z"/>
<path fill="#D1D3D4" stroke="#231F20" stroke-width="0.9139" stroke-miterlimit="10" d="M75.916,37.557
	c-0.244,0-0.49-0.065-0.713-0.202c-0.646-0.395-0.851-1.238-0.456-1.884l0.287-0.469c1.8-2.931,6.576-10.717,8.49-17.489
	c0.206-0.73,0.965-1.152,1.692-0.947c0.729,0.206,1.152,0.964,0.946,1.692c-2.018,7.137-6.764,14.874-8.792,18.177L77.088,36.9
	C76.829,37.323,76.377,37.557,75.916,37.557z"/>
<path fill="#D1D3D4" stroke="#231F20" stroke-width="0.9139" stroke-miterlimit="10" d="M18.643,97.724
	c-0.648,0-1.225-0.461-1.347-1.123c-0.137-0.745,0.355-1.458,1.1-1.597c4.601-0.848,27.859-3.486,32.947,0.243
	c0.611,0.448,0.744,1.306,0.296,1.915c-0.447,0.612-1.305,0.743-1.916,0.297c-3.565-2.615-23.648-1.082-30.83,0.243
	C18.809,97.716,18.725,97.724,18.643,97.724z"/>
<path fill="#D1D3D4" stroke="#231F20" stroke-width="0.9139" stroke-miterlimit="10" d="M34.589,99.551
	c-0.452,0-0.893-0.222-1.155-0.63c-1.013-1.58-5.181-3.213-8.857-4.653c-5.027-1.972-9.775-3.831-10.87-6.716
	c-0.269-0.706,0.086-1.5,0.794-1.768c0.708-0.27,1.5,0.088,1.769,0.795c0.664,1.747,5.456,3.625,9.308,5.134
	c4.458,1.747,8.671,3.398,10.165,5.729c0.409,0.637,0.223,1.484-0.414,1.894C35.099,99.48,34.843,99.551,34.589,99.551z"/>
</svg>
