<svg xmlns="http://www.w3.org/2000/svg" xmlns:xlink="http://www.w3.org/1999/xlink" x="0" y="0" width="100" height="100" viewBox="0 0 100 100">
	<g transform="translate(50,50)">
	<path fill="#A97C50" stroke="#3F3D42" d="M-24.398-11.418c0-5.389,3.378-8.778,8.778-8.778l30.239-3c6.551,0,9.779,4.975,9.779,12.778l-29.24,5L-24.398-11.418 z"/>
	<path fill="#FBB040" stroke="#564700" d="M16.086-8.908c0-8.18-3.384-13.394-10.249-13.394l3.969-0.551c6.866,0,10.25,5.214,10.25,13.394L16.086-8.908 z"/>
	<path fill="#FBB040" stroke="#564700" d="M-9.922-20.645c7.313,0,11.578,5.8,11.578,14.513l4.182-0.754c0-8.714-3.604-14.268-10.918-14.268L-9.922-20.645 z"/>
	<polygon fill="#A97C50" stroke="#3F3D42" points="-4.842,14.139 -24.398,8.139 -24.398,-11.418 -4.842,-5.418 "/>
	<polygon fill="#A97C50" stroke="#3F3D42" points="24.398,8.139 -4.842,14.139 -4.842,-5.418 24.398,-10.418 "/>
	<path fill="#A97C50" stroke="#3F3D42" d="M-24.398-11.418c0-5.4,3.378-8.778,8.778-8.778c6.925,0,10.778,9.378,10.778,14.778L-24.398-11.418 z"/>
	<polygon fill="#FBB040" stroke="#564700" points="20.056,9.408 15.72,10.299 15.72,-8.733 20.056,-9.474 "/>
	<polygon fill="#FBB040" stroke="#564700" points="5.991,12.01 1.655,12.9 1.655,-6.132 5.991,-6.873 "/>
	<polygon fill="#FBB040" stroke="#564700" points="8.549,-5.782 9.165,-7.813 12.521,-8.387 13.751,-6.873 12.355,-3.828 10.476,-3.615"/>
	</g>
</svg>