<?xml version="1.0" encoding="utf-8"?>
<!-- Generator: Adobe Illustrator 15.1.0, SVG Export Plug-In . SVG Version: 6.00 Build 0)  -->
<!DOCTYPE svg PUBLIC "-//W3C//DTD SVG 1.1//EN" "http://www.w3.org/Graphics/SVG/1.1/DTD/svg11.dtd">
<svg version="1.1" id="Layer_1" xmlns="http://www.w3.org/2000/svg" xmlns:xlink="http://www.w3.org/1999/xlink" x="0px" y="0px"
	 width="100px" height="100px" viewBox="0 0 100 100" enable-background="new 0 0 100 100" xml:space="preserve">
<circle fill="#C49A6C" stroke="#231F20" stroke-linecap="round" stroke-linejoin="round" stroke-miterlimit="10" cx="88.063" cy="71.42" r="1.914"/>
<path fill="#C49A6C" stroke="#231F20" stroke-linecap="round" stroke-linejoin="round" stroke-miterlimit="10" d="M89.045,69.84
	c0,0-0.678,0.258-1.021,0.258s-0.942-0.258-0.942-0.258s-0.933-14.846-0.933-18.353c0-3.506,0.933-4.71,0.933-4.71h1.963
	c0,0,0.932,1.293,0.932,4.809S89.045,69.84,89.045,69.84z"/>
<circle fill="#C49A6C" stroke="#231F20" stroke-linecap="round" stroke-linejoin="round" stroke-miterlimit="10" cx="36.561" cy="86.316" r="1.914"/>
<path fill="#C49A6C" stroke="#231F20" stroke-linecap="round" stroke-linejoin="round" stroke-miterlimit="10" d="M37.542,84.736
	c0,0-0.677,0.258-1.02,0.258s-0.943-0.258-0.943-0.258s-0.932-14.846-0.932-18.352s0.932-4.711,0.932-4.711h1.963
	c0,0,0.932,1.293,0.932,4.809S37.542,84.736,37.542,84.736z"/>
<circle fill="#C49A6C" stroke="#231F20" stroke-linecap="round" stroke-linejoin="round" stroke-miterlimit="10" cx="14.945" cy="79.703" r="1.914"/>
<path fill="#C49A6C" stroke="#231F20" stroke-linecap="round" stroke-linejoin="round" stroke-miterlimit="10" d="M15.927,78.123
	c0,0-0.677,0.258-1.02,0.258s-0.943-0.258-0.943-0.258s-0.932-14.846-0.932-18.352s0.932-4.711,0.932-4.711h1.963
	c0,0,0.932,1.293,0.932,4.809S15.927,78.123,15.927,78.123z"/>
<circle fill="#C49A6C" stroke="#231F20" stroke-linecap="round" stroke-linejoin="round" stroke-miterlimit="10" cx="60.432" cy="66.426" r="1.914"/>
<path fill="#C49A6C" stroke="#231F20" stroke-linecap="round" stroke-linejoin="round" stroke-miterlimit="10" d="M61.414,64.844
	c0,0-0.678,0.26-1.021,0.26s-0.942-0.26-0.942-0.26s-0.933-14.846-0.933-18.352s0.933-4.71,0.933-4.71h1.963
	c0,0,0.932,1.293,0.932,4.809S61.414,64.844,61.414,64.844z"/>
<polyline fill="#8B5E3C" stroke="#231F20" stroke-linecap="round" stroke-linejoin="round" stroke-miterlimit="10" points="
	91.324,41.813 91.324,48.587 37.448,64.482 37.448,57.027 "/>
<polyline fill="#A97C50" stroke="#231F20" stroke-linecap="round" stroke-linejoin="round" stroke-miterlimit="10" points="
	11.835,48.587 11.835,56.633 37.448,64.482 37.448,56.732 "/>
<polygon fill="#A97C50" stroke="#231F20" stroke-linecap="round" stroke-linejoin="round" stroke-miterlimit="10" points="
	10.559,49.075 38.625,57.711 96.035,42.114 96.035,39.464 10.559,46.425 "/>
<polygon fill="#8B5E3C" stroke="#231F20" stroke-linecap="round" stroke-linejoin="round" stroke-miterlimit="10" points="
	38.625,57.711 96.035,42.114 96.035,39.464 38.765,44.127 "/>
<polygon fill="#C49A6C" stroke="#231F20" stroke-linecap="round" stroke-linejoin="round" stroke-miterlimit="10" points="
	10.559,46.425 38.625,55.061 96.035,39.464 66.201,31.9 "/>
<polygon fill="#8B5E3C" stroke="#231F20" stroke-linecap="round" stroke-linejoin="round" stroke-miterlimit="10" points="
	91.324,39.065 37.448,52.565 37.448,27.737 91.324,14.237 "/>
<path fill="#A97C50" stroke="#231F20" stroke-linecap="round" stroke-linejoin="round" stroke-miterlimit="10" d="M22.041,47.995
	l15.407,4.57V27.737l-6.084-1.43c0,0-0.883,6.771-4.514,9.225s-4.809,4.415-4.809,6.869S22.041,47.995,22.041,47.995z"/>
<polygon fill="#C49A6C" stroke="#231F20" stroke-linecap="round" stroke-linejoin="round" stroke-miterlimit="10" points="
	83.964,13.648 91.324,14.237 37.448,27.737 31.364,26.308 "/>
</svg>
