<?xml version="1.0" encoding="utf-8"?>
<!-- Generator: Adobe Illustrator 15.1.0, SVG Export Plug-In . SVG Version: 6.00 Build 0)  -->
<!DOCTYPE svg PUBLIC "-//W3C//DTD SVG 1.1//EN" "http://www.w3.org/Graphics/SVG/1.1/DTD/svg11.dtd">
<svg version="1.1" id="Layer_2" xmlns="http://www.w3.org/2000/svg" xmlns:xlink="http://www.w3.org/1999/xlink" x="0px" y="0px"
	 width="100px" height="100px" viewBox="0 0 100 100" enable-background="new 0 0 100 100" xml:space="preserve">
<path fill="#58595B" stroke="#231F20" stroke-linecap="round" stroke-linejoin="round" stroke-miterlimit="10" d="M23.309,8.095
	c-1.684,1.384-2.709,2.875-2.807,5.142c-0.081,1.868,0.114,3.176,1.292,4.62c2.039,2.497,4.629,3.471,7.767,3.011
	c1.785-0.262,3.854-0.909,5.707-0.915c0.858-4.407-1.144-8.184-2.632-12.039"/>
<path fill="#D4D4AA" stroke="#231F20" stroke-linecap="round" stroke-linejoin="round" stroke-miterlimit="10" d="M27.202,20.772
	c2.337,0.203,1.58-4.23,1.111-5.342c-0.857-2.035-3.198-3.446-5.34-3.368c1.854-1.01,4.076-0.975,6.188-1.063
	c1.064-0.045,2.363-0.359,3.31,0.242c0.9,0.572,1.857,1.754,2.427,2.65c0.596,0.938,2.462,3.755,1.521,4.867
	c-0.622,0.735-3.156,0.896-4.054,1.107c-1.606,0.376-2.978,0.817-4.711,0.817"/>
<path fill="#D4D4AA" stroke="#231F20" stroke-linecap="round" stroke-linejoin="round" stroke-miterlimit="10" d="M23.127,8.642
	c4.771-1.426,7.514,1.903,9.213,5.705c1.499,3.354,1.845,6.866,5.63,8.419c4.208,1.726,9.194,0.537,13.592,0.545
	c2.16,0.004,4.683,0.257,6.431,1.7c1.451,1.198,1.109,2.99,0.72,4.636c-0.674,2.841-2.282,5.447-2.444,8.397
	c-0.091,1.661,0.437,4.181,2.085,4.913c0.315,0.14,0.73,0.284,1.11,0.203c0.507-0.108,0.573-0.46,1.056-0.814
	c0.738-0.542,1.965-0.76,2.832-1.039c2.527-0.812,5.181-0.879,7.833-0.792c2.356,0.077,4.878,0.193,7.089-0.705
	c1.123-0.456,3.946-1.933,4.247-3.167c-1.663-0.639-1.732-3.68-1.623-5.077c0.177-2.254,1.06-4.237,1.563-6.442
	c0.497-2.171,0.533-5.226-1.201-6.889c-1.501-1.439-3.981-1.627-5.967-1.625c-3.502,0.003-7.012-0.031-10.515,0.09
	c-1.517,0.053-3.005,0.091-4.535,0.091c-1.154,0-2.562,0.208-3.633-0.179c-2.356-0.853-3.024-3.254-3.239-5.435
	c-0.143-1.445,0.062-3.445-0.838-4.69c-1.246-1.722-3.797-1.642-5.668-1.733c-1.803-0.088-3.662-0.062-5.446,0.196
	c-3.169,0.46-6.301,1.371-9.508,1.7c-1.608,0.165-3.237,0.307-4.799,0.455c-1.198,0.114-3.393,0.349-4.166,1.447"/>
<path fill="none" stroke="#BE1E2D" stroke-linecap="round" stroke-linejoin="round" stroke-miterlimit="10" d="M36.71,11.717
	c0.698-0.368,1.533-0.946,2.36-0.912c0.415,0.018,0.709,0.311,1.182,0.284c0.876-0.05,1.403-0.843,2.166-1.102
	c0.74-0.251,0.62-0.07,1.193,0.26c0.426,0.246,0.482,0.46,0.983,0.479c0.833,0.03,1.521-0.787,2.374-0.818
	c0.384-0.014,0.691,0.25,0.975,0.248c0.502-0.003,0.806-0.37,1.353-0.614"/>
<path fill="none" stroke="#BE1E2D" stroke-linecap="round" stroke-linejoin="round" stroke-miterlimit="10" d="M39.336,17.603
	c0.747-2.205,2.042-0.433,3.337-0.716c0.922-0.202,1.468-1.367,2.38-1.62c0.962-0.267,1.547,0.356,2.153,0.958
	c0.72-0.498,1.216-1.401,1.999-1.792"/>
<path fill="none" stroke="#BE1E2D" stroke-linecap="round" stroke-linejoin="round" stroke-miterlimit="10" d="M46.036,20.772
	c0.121-0.25,0.691-1.155,1.18-1.18c0.573-0.029,0.97,0.716,1.609,0.734c1.186,0.034,1.427-1.296,2.285-1.832
	c2.275,2.868,2.146-2.25,3.529-0.981"/>
<path fill="none" stroke="#BE1E2D" stroke-linecap="round" stroke-linejoin="round" stroke-miterlimit="10" d="M54.639,21.587
	c0.901-1.636,1.396-0.924,2.812-0.782c1.32,0.133,1.362-1.061,1.907-2.087c0.481,0.303,1.08,0.601,1.627,0.673
	c0.184-0.394,0.534-0.841,0.896-0.883"/>
<path fill="none" stroke="#BE1E2D" stroke-linecap="round" stroke-linejoin="round" stroke-miterlimit="10" d="M60.343,24.213
	c0.271-1.996,1.812-0.584,2.968-1.463c0.367-0.279,0.812-0.943,1.105-1.273c0.341-0.386,0.684-0.584,0.639-1.206
	c1.382,1.639,1.292,0.203,2.26-0.432c0.354-0.232,0.54-0.037,0.976-0.146c0.522-0.131,0.89-0.397,1.375-0.593
	c0.687,1.187,2.404-0.842,3.536-0.41"/>
<path fill="none" stroke="#BE1E2D" stroke-linecap="round" stroke-linejoin="round" stroke-miterlimit="10" d="M61.701,27.654
	c0.762-0.951,1.923-1.514,3.1-1.471c1.175,0.044,2.579,0.563,3.695-0.059c0.837-0.466,1.244-1.579,2.183-1.979
	c0.951-0.405,0.922-0.411,1.619-1.206c1.141-1.303,1.534,0.018,2.8-0.078c0.754-0.057,1.261-0.997,1.98-1.238
	c0.557-0.187,1.276-0.227,1.827-0.037"/>
<path fill="none" stroke="#BE1E2D" stroke-linecap="round" stroke-linejoin="round" stroke-miterlimit="10" d="M62.878,31.819
	c1.497-1.832,3.517-0.003,5.236-0.714c0.603-0.249,0.809-1.187,1.374-1.465c0.478-0.235,1.051,0.031,1.566,0.006
	c1.192-0.057,1.331-1.406,2.265-1.456c0.684-0.037,1.581,0.814,2.335,0.913c0.856,0.112,2.007,0.009,2.708-0.542"/>
</svg>
