<svg version="1.1" xmlns="http://www.w3.org/2000/svg" xmlns:xlink="http://www.w3.org/1999/xlink" x="0px" y="0px" width="75px" height="50px" viewBox="-40 -50 80 50" enable-background="new 0 0 75 50" xml:space="preserve">
<polygon fill="#754C29" stroke="#231F20" stroke-width="0.792" stroke-linecap="round" stroke-miterlimit="10" points=" -14.872,-8.243 -29.705,-12.171 -11.355,-18.67 "/>
<path fill="#A97C50" stroke="#231F20" stroke-width="0.792" stroke-linecap="round" stroke-linejoin="round" stroke-miterlimit="10" d=" M-13.074-32.741c-0.13-0.631-1.587-0.864-3.255-0.52c-1.668,0.344-2.915,1.134-2.785,1.765l7.991,22.711l3.083-0.568L-13.074-32.741 z"/>
<polygon fill="#754C29" stroke="#231F20" stroke-width="0.792" stroke-linecap="round" stroke-linejoin="round" stroke-miterlimit="10" points=" 2.042,-23.201 -7.875,-21.099 -8.375,-23.201 3.02,-27.618 "/>
<path fill="#C49A6C" stroke="#231F20" stroke-width="0.75" stroke-miterlimit="10" d="M-5.35-3.55 		c0.668,0.192,1.349,0.806,1.802,0.487c1.554-1.091,4.477-2.222,5.959-2.271s4.498-0.494,6.821-1.483 		c1.839-0.783,3.628-1.14,5.162-2.521c0.325-0.293,0.551-0.696,0.795-1.063c-0.865-4.396-4.23-7.679-8.26-7.679 		c-0.434,0-0.854,0.05-1.27,0.123c-2.534-0.174-6.831-0.285-10.305,0.549c-2.938,0.706-6.291,2.287-8.637,3.518 		c-1.068,0.323-2.055,0.881-2.916,1.628c-0.025,0.015-0.031,0.026-0.031,0.026c-2.064,1.807-3.406,4.677-3.406,7.92 		c0,0.43,0.031,0.85,0.077,1.265c2.241-0.036,4.419-0.694,6.646-1.018C-9.651-4.542-10.145-4.93-5.35-3.55z"/>
<path fill="#C49A6C" stroke="#231F20" stroke-width="0.75" stroke-miterlimit="10" d="M-4.926-3.55 	c0.668,0.192,1.35,0.806,1.803,0.487c0-0.001,0.002-0.002,0.004-0.003C-3.09-3.395-3.075-3.73-3.075-4.069 	c0-5.337-3.707-9.664-8.28-9.664s-8.28,4.327-8.28,9.664c0,0.345,0.018,0.684,0.047,1.019c2.4,0.055,4.721-0.674,7.1-1.019 	C-9.226-4.542-9.721-4.93-4.926-3.55z"/>
<path fill="none" stroke="#27AAE1" stroke-width="2" stroke-linecap="round" stroke-miterlimit="10" d="M21.943-13.513 	c-0.874,1.154-2.179,1.867-3.561,2.109c-0.698,0.122-1.61,0.179-2.194,0.622c-0.71,0.54-1.199,1.396-1.949,1.968 	c-1.363,1.038-2.992,1.339-4.536,1.997C7.38-5.828,4.365-5.382,2.882-5.333s-4.406,1.18-5.959,2.271 	C-3.53-2.745-4.211-3.358-4.879-3.55c-4.795-1.38-4.3-0.992-7.563-0.519s-6.228,1.75-10.084,0.515"/>
<path fill="none" stroke="#231F20" stroke-width="0.792" stroke-linecap="round" stroke-miterlimit="10" d="M-17.45-4.801 	c0-4.884,3.177-8.844,7.095-8.844"/>
<polygon fill="#F7941E" stroke="#231F20" stroke-width="0.792" stroke-linecap="round" stroke-linejoin="round" stroke-miterlimit="10" points=" 	-10.708,-19.08 28.625,-7.034 35.792,-12.201 35.792,-13.563 -10.708,-20.442 	"/>
<polygon fill="#A97C50" stroke="#231F20" stroke-width="0.792" stroke-linecap="round" stroke-linejoin="round" stroke-miterlimit="10" points=" 	-10.708,-20.442 28.625,-8.396 35.792,-13.563 -2.042,-23.729 	"/>
<polygon fill="#C49A6C" stroke="#231F20" stroke-width="0.792" stroke-linecap="round" stroke-linejoin="round" stroke-miterlimit="10" points=" 0.627,-13.285 3.794,-9.353 27.71,-18.618 27.71,-19.946 0.627,-14.613 "/>
<polygon fill="#754C29" stroke="#231F20" stroke-width="0.792" stroke-linecap="round" stroke-linejoin="round" stroke-miterlimit="10" points=" 0.627,-14.613 3.794,-10.681 27.71,-19.946 24.96,-23.363 "/>
<polyline fill="#C49A6C" stroke="#231F20" stroke-width="0.792" stroke-linecap="round" stroke-linejoin="round" stroke-miterlimit="10" points=" 8.127,-3.973 11.476,-24.099 18.13,-22.626 11.21,-3.973 "/>
<ellipse transform="matrix(0.9764 0.2161 -0.2161 0.9764 -4.6985 -3.7506)" fill="#FBB040" stroke="#231F20" stroke-width="0.792" stroke-linecap="round" stroke-linejoin="round" stroke-miterlimit="10" cx="14.803" cy="-23.363" rx="3.408" ry="1"/>
<path fill="none" stroke="#00AEEF" stroke-width="0.792" stroke-linecap="round" stroke-linejoin="round" stroke-miterlimit="10" d=" M6.794-4.702c1.014,1.617,2.938,1.29,4.5,0.646c0.888-0.366,1.503-0.989,2.333-1.461c0.717-0.408,1.412-0.342,2.167-0.602"/>
<polygon fill="#C49A6C" stroke="#231F20" stroke-width="0.792" stroke-linecap="round" stroke-linejoin="round" stroke-miterlimit="10" points=" -35.792,-8.223 -34.208,-6.353 -3.244,-18.118 -4.625,-21.585 "/>
<polygon fill="#C49A6C" stroke="#231F20" stroke-width="0.792" stroke-linecap="round" stroke-linejoin="round" stroke-miterlimit="10" points=" -1.335,-24.576 -4.625,-21.585 -3.244,-18.118 0.415,-21.826 "/>
<polygon fill="#C49A6C" stroke="#231F20" stroke-width="0.792" stroke-linecap="round" stroke-linejoin="round" stroke-miterlimit="10" points=" 0.415,-26.368 2.042,-23.201 5.625,-26.368 3.792,-29.118 "/>
<polygon fill="#726658" stroke="#231F20" stroke-width="0.792" stroke-linecap="round" stroke-linejoin="round" stroke-miterlimit="10" points=" -30.208,-13.969 -35.792,-8.223 -4.625,-21.585 -1.335,-24.576 -14.458,-19.139 0.415,-26.368 3.792,-29.118 "/>
</svg>
