<svg xmlns="http://www.w3.org/2000/svg" xmlns:xlink="http://www.w3.org/1999/xlink" x="0" y="0" width="120" height="150" viewBox="90 -50 120 150">
			<polygon fill="#A97C50" stroke="#231F20" stroke-linecap="round" stroke-linejoin="round" stroke-miterlimit="10" points="
				108.048,95.45 200,91.901 200,10.688 108.048,8.067 			"/>
			
				<path fill="#BE1E2D" stroke="#231F20" stroke-width="0.5" stroke-linecap="round" stroke-linejoin="round" stroke-miterlimit="10" d="
				M139.257,31.047c0,5.23-2.534,9.461-5.675,9.45c-3.154-0.012-5.725-4.299-5.725-9.576c0-5.277,2.569-9.508,5.725-9.449
				C136.723,21.53,139.257,25.818,139.257,31.047z M134.254,25.334c-1.671-0.026-3.029,2.524-3.029,5.696
				c0,3.173,1.358,5.753,3.029,5.764c1.668,0.011,3.018-2.54,3.018-5.697C137.271,27.94,135.922,25.36,134.254,25.334z"/>
			
				<polygon fill="#BE1E2D" stroke="#231F20" stroke-width="0.5" stroke-linecap="round" stroke-linejoin="round" stroke-miterlimit="10" points="
				141.688,39.79 140.646,28.946 143.025,28.977 143.025,30.373 145.691,29.011 146.43,31.127 143.544,32.646 143.025,39.796 			"/>
			
				<polygon fill="#BE1E2D" stroke="#231F20" stroke-width="0.5" stroke-linecap="round" stroke-linejoin="round" stroke-miterlimit="10" points="
				146.43,21.711 147.314,39.814 149.081,39.822 149.081,35.133 151.43,36.885 152.159,34.464 149.301,32.183 152.159,29.093 
				150.842,27.342 148.492,29.046 147.902,21.738 			"/>
			
				<path fill="#BE1E2D" stroke="#231F20" stroke-width="0.5" stroke-linecap="round" stroke-linejoin="round" stroke-miterlimit="10" d="
				M152.159,30.845v2.773l1.753,0.016l-0.876,6.051c0,0,1.606,0.353,1.752,0.008c0.146-0.345,0-6.051,0-6.051l2.181-0.652v-2.089
				l-2.181-0.025v-3.977l-1.604-0.023l0.291,3.985L152.159,30.845z"/>
			
				<polygon fill="#BE1E2D" stroke="#231F20" stroke-width="0.5" stroke-linecap="round" stroke-linejoin="round" stroke-miterlimit="10" points="
				170.449,40.269 171.318,30.224 173.055,29.948 174.311,36.794 174.791,31.213 176.613,31.462 175.251,40.681 173.145,40.408 
				172.376,34.481 171.596,40.208 			"/>
			
				<path fill="#BE1E2D" stroke="#231F20" stroke-width="0.5" stroke-linecap="round" stroke-linejoin="round" stroke-miterlimit="10" d="
				M163.322,35.161c0,2.893-1.191,5.232-2.663,5.227c-1.478-0.005-2.677-2.365-2.677-5.27c0-2.905,1.199-5.246,2.677-5.227
				C162.131,29.909,163.322,32.268,163.322,35.161z M160.453,32.243c-0.705-0.007-1.278,1.193-1.278,2.682
				c0,1.489,0.573,2.698,1.278,2.703c0.706,0.004,1.277-1.196,1.277-2.682C161.73,33.46,161.159,32.25,160.453,32.243z"/>
			
				<polygon fill="#BE1E2D" stroke="#231F20" stroke-width="0.5" stroke-linecap="round" stroke-linejoin="round" stroke-miterlimit="10" points="
				138.807,42.646 140.84,42.649 143.234,50.535 144.878,41.918 146.498,41.923 148.623,59.024 146.872,59.043 144.878,47.831 
				144.178,53.306 141.984,53.467 139.701,46.804 139.08,59.128 137.165,58.405 			"/>
			
				<path fill="#BE1E2D" stroke="#231F20" stroke-width="0.5" stroke-linecap="round" stroke-linejoin="round" stroke-miterlimit="10" d="
				M148.623,55.931l1.559-8.847l1.678-0.002l2.602,8.798l-0.839,0.594l-2.072-3.51l-1.366-0.139l-0.812,3.688L148.623,55.931z
				 M151.549,51.199l-0.561-2.792l-0.807,2.799L151.549,51.199z"/>
			
				<polygon fill="#BE1E2D" stroke="#231F20" stroke-width="0.5" stroke-linecap="round" stroke-linejoin="round" stroke-miterlimit="10" points="
				154.46,48.397 155.324,57.925 157.051,57.907 156.314,50.479 158.996,48.386 157.911,47.073 156.314,48.394 155.693,47.076 			
				"/>
			
				<polygon fill="#BE1E2D" stroke="#231F20" stroke-width="0.5" stroke-linecap="round" stroke-linejoin="round" stroke-miterlimit="10" points="
				169.165,49.856 169.165,51.886 171.377,51.874 171.377,57.084 172.777,57.07 172.777,51.179 174.462,51.17 174.462,48.825 
				172.656,48.831 172.536,45.795 170.732,45.796 170.732,49.126 			"/>
			<polygon opacity="0.2" fill="#FFE09F" enable-background="new    " points="163.952,30.96 164.438,39.888 168.561,39.905 
				169.77,31.027 			"/>
			<path opacity="0.2" fill="#FFE09F" enable-background="new    " d="M159.921,42.699l0.738,15.171l6.207-0.743
				c0,0,0.97-2.098,0.97-4.698c0-2.603-3.154-3.9-3.154-3.9l-2.313-0.139l-1.101-5.688L159.921,42.699z"/>
			<polygon fill="#8B5E3C" stroke="#231F20" stroke-linecap="round" stroke-linejoin="round" stroke-miterlimit="10" points="
				148.562,87.029 170.327,82.929 160.289,79.394 142.637,82.954 			"/>
			<polygon fill="#8B5E3C" stroke="#231F20" stroke-linecap="round" stroke-linejoin="round" stroke-miterlimit="10" points="
				148.562,98.919 148.562,87.029 170.327,82.929 170.327,94.099 			"/>
			<polygon fill="#8B5E3C" stroke="#231F20" stroke-linecap="round" stroke-linejoin="round" stroke-miterlimit="10" points="
				142.637,94.806 142.637,82.954 148.562,87.029 148.562,98.919 			"/>
			<path fill="#8B5E3C" stroke="#231F20" stroke-linecap="round" stroke-linejoin="round" stroke-miterlimit="10" d="
				M190.982,96.586c0,1.289-5.35,2.333-11.946,2.333s-11.946-1.044-11.946-2.333c0,0-1-6.007-1-14.631s1-14.633,1-14.633
				c0-1.288,5.35-2.332,11.946-2.332s11.946,1.044,11.946,2.332c0,0,1,5.442,1,14.633S190.982,96.586,190.982,96.586z"/>
			
				<ellipse fill="#A97C50" stroke="#231F20" stroke-linecap="round" stroke-linejoin="round" stroke-miterlimit="10" cx="179.036" cy="66.803" rx="11.946" ry="2.333"/>
			<path fill="#BBB268" stroke="#231F20" stroke-linecap="round" stroke-linejoin="round" stroke-miterlimit="10" d="M135.032,6.052
				c8.521,4.336,18.211,7.01,27.841,6.538c5.243-0.258,10.152-0.104,15.246,1.053c4.591,1.044,9.136,2.253,13.882,2.196
				c5.303-0.064,12.597-0.853,10.59-7.529c-3.612-12.017-18.086-21.403-30.169-22.59c-4.36-0.428-8.203,0.596-12.491,0.201
				c-3.741-0.345-7.639-1.275-11.599-1.695c-6.285-0.667-12.421-1.376-18.821-1.763c-6.346-0.384-11.164,1.616-17.063,2.51"/>
</svg>