<svg xmlns="http://www.w3.org/2000/svg" xmlns:xlink="http://www.w3.org/1999/xlink" x="0" y="0" width="300" height="200" viewBox="-200 -50 300 200">
	<g transform="translate(50,50)">

			<path fill="#BBB268" stroke="#231F20" stroke-linecap="round" stroke-linejoin="round" stroke-miterlimit="10" d="
				M-93.524,11.412c-3.523,1.476-9.566-0.983-10.499-4.833c-1.028-4.247,4.18-8.451,6.608-11.524
				c2.717-3.438,3.985-7.759,6.622-11.207c4.454-5.823,11.477-3.691,17.867-5.802c5.479-1.81,9.333-1.556,15.015-0.758
				c5.747,0.807,12.091-0.545,17.613,1.014c5.353,1.512,10.542,1.216,16.109,1.272c4.907,0.05,9.062,1.521,13.697,2.56
				c5.067,1.136,10.206,0.76,15.276,1.266c4.315,0.431,7.79,3.002,11.977,3.573c4.44,0.606,8.67-0.058,12.473,2.853
				c2.998,2.294,5.227,5.286,7.648,8.086c2.996,3.464,4.723,5.986,0.764,9.169c-3.157,2.539-7.211,3.527-11.207,3.821"/>
			<polygon fill="#C49A6C" stroke="#231F20" stroke-linecap="round" stroke-linejoin="round" stroke-miterlimit="10" points="
				-97.485,71.568 -97.485,5.8 -79.072,-1.758 -79.072,84.135 			"/>
			<polygon fill="#A97C50" stroke="#231F20" stroke-linecap="round" stroke-linejoin="round" stroke-miterlimit="10" points="
				-79.072,84.135 31.142,76.136 31.142,7.12 -79.072,-1.758 			"/>
			<polygon fill="#3C2415" stroke="#231F20" stroke-linecap="round" stroke-linejoin="round" stroke-miterlimit="10" points="
				-56.249,40.593 -22.783,39.905 -22.783,11.145 -56.249,8.067 			"/>
			<polygon fill="#8B5E3C" stroke="#231F20" stroke-linecap="round" stroke-linejoin="round" stroke-miterlimit="10" points="
				-68.357,44.049 -56.249,40.594 -56.249,8.067 -68.357,3.29 			"/>
			<polygon fill="#8B5E3C" stroke="#231F20" stroke-linecap="round" stroke-linejoin="round" stroke-miterlimit="10" points="
				-8.952,44.049 -22.346,40.866 -22.346,10.898 -8.952,6.497 			"/>
			
				<rect x="-70.74" y="3.29" fill="#C49A6C" stroke="#231F20" stroke-linecap="round" stroke-linejoin="round" stroke-miterlimit="10" width="2.382" height="40.759"/>
			
				<rect x="-8.814" y="6.497" fill="#C49A6C" stroke="#231F20" stroke-width="0.8587" stroke-linecap="round" stroke-linejoin="round" stroke-miterlimit="10" width="2.537" height="37.553"/>
	</g>
	
</svg>