<svg xmlns="http://www.w3.org/2000/svg" xmlns:xlink="http://www.w3.org/1999/xlink" x="0" y="0" width="100" height="100" viewBox="-100 0 100 100">
			<polygon fill="#E1CA49" stroke="#231F20" stroke-linecap="round" stroke-linejoin="round" stroke-miterlimit="10" points="
				-65.47,63.906 -97.485,66.541 -97.485,56.451 -65.47,53.816 			"/>
			<path fill="#8B5E3C" stroke="#231F20" stroke-linecap="round" stroke-linejoin="round" stroke-miterlimit="10" d="
				M-57.499,66.759c-0.459,1.205-5.83,0.274-11.993-2.075c-6.164-2.351-10.791-5.231-10.332-6.436c0,0,1.206-5.97,4.277-14.027
				c3.073-8.058,6.147-13.317,6.147-13.317c0.458-1.204,5.829-0.273,11.994,2.077c6.164,2.35,10.79,5.231,10.332,6.435
				c0,0-1.004,5.441-4.278,14.029C-54.626,62.031-57.499,66.759-57.499,66.759z"/>
			
				<ellipse transform="matrix(0.3563 -0.9344 0.9344 0.3563 -69.7653 -31.9221)" fill="#A97C50" stroke="#231F20" stroke-linecap="round" stroke-linejoin="round" stroke-miterlimit="10" cx="-58.052" cy="34.674" rx="2.333" ry="11.946"/>
			<path fill="#FBCA62" stroke="#231F20" stroke-linecap="round" stroke-linejoin="round" stroke-miterlimit="10" d="
				M-80.141,48.529c1.116,10.536,2.019,19.057-0.849,19.383c-2.868,0.324-3.775-8.238-4.891-18.776
				c-1.116-10.538-2.27-19.053,0.85-19.384C-81.912,29.422-81.257,37.991-80.141,48.529z"/>
			<path fill="#FBCA62" stroke="#231F20" stroke-linecap="round" stroke-linejoin="round" stroke-miterlimit="10" d="
				M-73.915,47.661c-2.143,10.376-3.876,18.769-6.707,18.205c-2.831-0.562-1.089-8.996,1.055-19.373
				c2.144-10.377,3.636-18.84,6.708-18.206C-69.788,28.922-71.771,37.283-73.915,47.661z"/>
			<path fill="#FBCA62" stroke="#231F20" stroke-linecap="round" stroke-linejoin="round" stroke-miterlimit="10" d="
				M-88.984,51.829c7.386,7.596,13.36,13.739,11.306,15.768c-2.054,2.026-8.057-4.147-15.444-11.745
				c-7.387-7.597-13.554-13.581-11.306-15.768C-102.18,37.898-96.372,44.231-88.984,51.829z"/>
			<path fill="#FBCA62" stroke="#231F20" stroke-linecap="round" stroke-linejoin="round" stroke-miterlimit="10" d="
				M-84.252,47.933c3.318,10.062,6.002,18.199,3.268,19.125c-2.733,0.923-5.431-7.256-8.75-17.319s-6.247-18.142-3.268-19.125
				C-90.022,29.632-87.57,37.868-84.252,47.933z"/>
			<polygon fill="#C49A6C" stroke="#231F20" stroke-linecap="round" stroke-linejoin="round" stroke-miterlimit="10" points="
				-56.826,77.805 -56.826,92.232 -89.849,88.325 -89.849,74.19 			"/>
			<polygon fill="#8B5E3C" stroke="#231F20" stroke-linecap="round" stroke-linejoin="round" stroke-miterlimit="10" points="
				-52.032,58.328 -84.683,60.439 -84.683,75.336 -52.032,73.225 			"/>
			
				<polygon fill="#8B5E3C" stroke="#231F20" stroke-width="0.9978" stroke-linecap="round" stroke-linejoin="round" stroke-miterlimit="10" points="
				-84.683,59.94 -97.485,56.867 -97.485,72.264 -84.683,75.336 			"/>
			<path fill="#39B54A" stroke="#231F20" stroke-linecap="round" stroke-linejoin="round" stroke-miterlimit="10" d="
				M-66.125,73.938c-3.076-1.002-10.136-2.301-10.541,2.396c-0.149,1.731,0.522,3.174,1,4.666c0.491,1.535,0.157,3.962,0.991,5.275
				c2.227-1.301,0.079-5.087,2.009-6.462c1.289,1.197,0.917,4.036,0.996,5.687c0.087,1.811-0.281,4.077,0.191,5.808
				c2.577,0.457,1.787-6.896,3.179-8.619c1.234,0.82,1.006,3.9,1.63,5.261c1.194-1.472,0.22-4.185,0.962-5.953
				c0.449-1.069,1.081-1.55,1.87-2.361c1.281-1.318,1.685-1.156,3.666-1.468c3.042-0.479,1.316-2.087-0.661-3
				C-62.386,74.45-64.452,73.894-66.125,73.938z"/>
			<path fill="#39B54A" stroke="#231F20" stroke-linecap="round" stroke-linejoin="round" stroke-miterlimit="10" d="M-63,73
				c-2.141,0.344-3.633,0.971-3.842,3.167c-0.157,1.654,0.844,2.838-0.308,4.438c1.016-0.427,1.62-1.353,2.275-2.227
				c1.143,1.759-0.083,4.369,0.038,6.289c0.17,2.708,0.667,3.83-1.146,6.095c2.687-0.979,3.471-1.612,3.316-4.761
				c-0.095-1.92-0.513-5.259,1.467-6.483c-0.189,2.17,1.392,3.596,3.508,3.29c0.061-1.237-0.498-2.363-0.438-3.641
				c0.055-1.186,0.875-2.381,0.768-3.537C-57.649,72.509-60.859,72.656-63,73z"/>
			<path fill="#C49A6C" stroke="#231F20" stroke-linecap="round" stroke-linejoin="round" stroke-miterlimit="10" d="
				M-58.212,95.812l-2.631-12.996l13.14-15.979h14.447l1.536,12.113l-3.721,16.861c0,0-5.098,0-11.385,0
				C-53.115,95.812-58.212,95.812-58.212,95.812s5.098,0,11.386,0"/>
			<polygon fill="#603913" stroke="#231F20" stroke-linecap="round" stroke-linejoin="round" stroke-miterlimit="10" points="
				-47.704,66.838 -33.257,66.838 -38.073,82.816 -61.056,82.816 			"/>
			
				<line fill="none" stroke="#231F20" stroke-linecap="round" stroke-linejoin="round" stroke-miterlimit="10" x1="-47.704" y1="66.838" x2="-44.854" y2="78.952"/>
			
				<ellipse fill="#8DC63F" stroke="#231F20" stroke-linecap="round" stroke-linejoin="round" stroke-miterlimit="10" cx="-45.455" cy="68.061" rx="3.612" ry="3.37"/>
			
				<ellipse fill="#F9ED32" stroke="#231F20" stroke-linecap="round" stroke-linejoin="round" stroke-miterlimit="10" cx="-37.812" cy="66.046" rx="3.612" ry="3.37"/>
			
				<ellipse fill="#D7DF23" stroke="#231F20" stroke-linecap="round" stroke-linejoin="round" stroke-miterlimit="10" cx="-38.232" cy="70.489" rx="3.612" ry="3.37"/>
			
				<ellipse fill="#D7DF23" stroke="#231F20" stroke-linecap="round" stroke-linejoin="round" stroke-miterlimit="10" cx="-48.828" cy="70.489" rx="3.612" ry="3.37"/>
			
				<ellipse fill="#F9ED32" stroke="#231F20" stroke-linecap="round" stroke-linejoin="round" stroke-miterlimit="10" cx="-43.545" cy="72.207" rx="3.612" ry="3.37"/>
			
				<ellipse fill="#8DC63F" stroke="#231F20" stroke-linecap="round" stroke-linejoin="round" stroke-miterlimit="10" cx="-39.516" cy="75.576" rx="3.612" ry="3.37"/>
			
				<ellipse fill="#8DC63F" stroke="#231F20" stroke-linecap="round" stroke-linejoin="round" stroke-miterlimit="10" cx="-50.534" cy="74.024" rx="3.612" ry="3.37"/>
			
				<ellipse fill="#D7DF23" stroke="#231F20" stroke-linecap="round" stroke-linejoin="round" stroke-miterlimit="10" cx="-46.282" cy="76.265" rx="3.612" ry="3.37"/>
			
				<ellipse fill="#D7DF23" stroke="#231F20" stroke-linecap="round" stroke-linejoin="round" stroke-miterlimit="10" cx="-53.215" cy="77.395" rx="3.612" ry="3.37"/>
			
				<ellipse fill="#8DC63F" stroke="#231F20" stroke-linecap="round" stroke-linejoin="round" stroke-miterlimit="10" cx="-55.644" cy="80.765" rx="3.612" ry="3.37"/>
			
				<ellipse fill="#D7DF23" stroke="#231F20" stroke-linecap="round" stroke-linejoin="round" stroke-miterlimit="10" cx="-49.066" cy="81.324" rx="3.612" ry="3.37"/>
			
				<ellipse fill="#F9ED32" stroke="#231F20" stroke-linecap="round" stroke-linejoin="round" stroke-miterlimit="10" cx="-41.844" cy="80.764" rx="3.612" ry="3.37"/>
			<polygon fill="#8B5E3C" stroke="#231F20" stroke-linecap="round" stroke-linejoin="round" stroke-miterlimit="10" points="
				-60.844,82.816 -58.212,95.812 -35.441,95.812 -38.073,82.816 			"/>
</svg>