<svg xmlns="http://www.w3.org/2000/svg" xmlns:xlink="http://www.w3.org/1999/xlink" x="0" y="0" width="200" height="150" viewBox="-50 -50 200 150">
			<path fill="#BBB268" stroke="#231F20" stroke-linecap="round" stroke-linejoin="round" stroke-miterlimit="10" d="M76.061,17.093
				c0.751-4.784,1.889-8.24,5.771-11.292C86.2,2.367,89.624-1.605,94.183-4.745c2.143-1.475,4.377-2.385,6.722-3.569
				c2.54-1.284,4.573-3.154,7.044-4.474c4.16-2.223,9.328-4.062,13.784-4.755c8.175-1.272,17.456,0.704,25.596,1.517
				c4.934,0.493,9.622,0.907,14.498,1.695c4.548,0.735,9.358,0.09,13.858,1.045c5.743,1.219,11.307,3.937,15.797,7.843
				c3.926,3.416,8.231,10.507,7.791,15.76"/>
			<path fill="#BCBEC0" stroke="#231F20" stroke-linecap="round" stroke-linejoin="round" stroke-miterlimit="10" d="M73.551,17.078
				c2.191-0.604,4.374-0.372,6.582-1.149c1.385-0.487,2.809-1.261,4.144-1.964c2.365-1.245,4.781-2.649,6.998-4.164
				c2.18-1.49,12.198-8.09,10.532-11.519c-4.731-0.371-9.698,1.984-14.247,2.866c-5.499,1.066-10.988,1.911-16.583,2.151
				c-14.355,0.617-29.368,0.51-43.589-1.094c-2.754-0.311-33.356-5.091-33.68-0.23c-0.147,2.208,5.855,6.41,7.622,7.447
				c2.866,1.682,6.188,2.933,9.172,4.416c8.905,4.425,20.662,1.881,30.162,1.003c2.022-0.187,3.933-0.693,6.013-0.608
				c3.267,0.133,6.39,1.314,9.554,2.024c6.079,1.364,11.457,1.007,17.539,0.822"/>
			<polygon fill="#C49A6C" stroke="#231F20" stroke-linecap="round" stroke-linejoin="round" stroke-miterlimit="10" points="
				75.958,83.211 108.048,95.45 108.048,8.067 75.958,17.296 			"/>
			<polygon fill="#603913" stroke="#231F20" stroke-linecap="round" stroke-linejoin="round" stroke-miterlimit="10" points="
				79.509,83.755 79.509,30.018 88.087,28.822 88.087,87.027 			"/>
			
				<rect x="100.334" y="-7.395" transform="matrix(0.9977 0.0681 -0.0681 0.9977 3.2344 -6.805)" fill="#8B5E3C" stroke="#231F20" stroke-linecap="round" stroke-linejoin="round" stroke-miterlimit="10" width="2.238" height="102.887"/>
			
				<rect x="-8.699" y="-7.395" transform="matrix(-0.9977 0.0681 -0.0681 -0.9977 -12.1436 88.512)" fill="#8B5E3C" stroke="#231F20" stroke-linecap="round" stroke-linejoin="round" stroke-miterlimit="10" width="2.238" height="102.887"/>
			
				<rect x="62.81" y="75.157" fill="#D1D3D4" stroke="#231F20" stroke-linecap="round" stroke-linejoin="round" stroke-miterlimit="10" width="11.382" height="21.388"/>
			<polyline fill="#D1D3D4" stroke="#231F20" stroke-linecap="round" stroke-linejoin="round" stroke-miterlimit="10" points="
				57.557,92.019 57.557,75.157 62.81,75.157 62.81,96.545 57.557,92.019 			"/>
			<path fill="#8B5E3C" stroke="#231F20" stroke-linecap="round" stroke-linejoin="round" stroke-miterlimit="10" d="M22.019,94.695
				c0,0.842-3.494,1.523-7.802,1.523s-7.8-0.682-7.8-1.523c0,0-0.654-3.922-0.654-9.554s0.654-9.555,0.654-9.555
				c0-0.842,3.492-1.523,7.8-1.523s7.802,0.682,7.802,1.523c0,0,0.652,3.553,0.652,9.555S22.019,94.695,22.019,94.695z"/>
			
				<rect y="71.99" fill="#C49A6C" stroke="#231F20" stroke-linecap="round" stroke-linejoin="round" stroke-miterlimit="10" width="83.797" height="4.146"/>
			<polygon fill="#8B5E3C" stroke="#231F20" stroke-linecap="round" stroke-linejoin="round" stroke-miterlimit="10" points="
				0,71.729 17.031,66.542 66.766,66.542 83.797,71.729 			"/>
			<path fill="#9B8579" stroke="#231F20" stroke-linecap="round" stroke-linejoin="round" stroke-miterlimit="10" d="M-11.815-8.532
				C0.628-8.493,12.81-6.081,24.75-3.327c9.965,2.298,19.67,4.875,29.817,5.472c11.637,0.686,23.569-0.328,34.972-2.742
				c4.008-0.849,7.359-3.313,10.935-5.144c3.106-1.589,7.171-4.405,6.555,1.139c-0.238,2.141-0.557,3.972-0.679,6.106
				c-3.971,1.096-9.186,0.313-13.27,0.684c-3.806,0.345-7.521,0.987-11.212,1.926c-7.071,1.801-14.616,2.894-22.112,2.894
				c-9.95,0-19.379-1.27-29.112-2.2C20.091,3.8,9.536,4.047-0.871,5.482C-2.913,5.764-4.937,6.114-7,6.354
				c-1.354,0.157-5.387,1.298-6.571,0.465c-3.911-2.754,0.247-2.014-2.238-6.108c-1.367-2.253,0.258-9.392,3.775-8.804"/>
</svg>