<?xml version="1.0" encoding="utf-8"?>
<!-- Generator: Adobe Illustrator 15.1.0, SVG Export Plug-In . SVG Version: 6.00 Build 0)  -->
<!DOCTYPE svg PUBLIC "-//W3C//DTD SVG 1.1//EN" "http://www.w3.org/Graphics/SVG/1.1/DTD/svg11.dtd">
<svg version="1.1" id="Layer_1" xmlns="http://www.w3.org/2000/svg" xmlns:xlink="http://www.w3.org/1999/xlink" x="0px" y="0px"
	 width="100px" height="100px" viewBox="0 0 100 100" enable-background="new 0 0 100 100" xml:space="preserve">
<path fill="#C49A6C" stroke="#231F20" stroke-width="0.8939" stroke-miterlimit="10" d="M57.354,12.103
	c0.041,0.246-0.176,0.471-0.482,0.504l-0.289,0.031c-0.308,0.033-0.59-0.14-0.63-0.386l-0.521-3.124
	c-0.041-0.246,0.175-0.471,0.482-0.504l0.289-0.031c0.307-0.033,0.59,0.14,0.63,0.386L57.354,12.103z"/>
<path fill="#C49A6C" stroke="#231F20" stroke-width="0.8939" stroke-miterlimit="10" d="M62.527,13.673
	c0.041,0.246-0.176,0.471-0.482,0.504l-0.289,0.031c-0.308,0.033-0.59-0.14-0.63-0.386l-0.521-3.124
	c-0.041-0.246,0.175-0.471,0.482-0.504l0.289-0.031c0.307-0.033,0.59,0.14,0.63,0.386L62.527,13.673z"/>
<path fill="#3C2415" stroke="#231F20" stroke-width="0.8939" stroke-linecap="round" stroke-linejoin="round" stroke-miterlimit="10" d="
	M81.488,19.569c-0.056,0.881,0.499,1.749,0.593,2.626c0.053,0.476-0.003,0.941,0.129,1.416c0.438,1.59,1.505,2.698,2.71,3.963
	c0.911,0.955,1.844,1.904,2.778,2.83c0.831,0.825,1.878,1.665,2.395,2.664c0.836,1.617,0.707,3.471,1.572,5.083
	c0.589,1.095,1.228,2.193,1.974,3.224c0.559,0.771,1.299,1.441,1.415,2.338c0.155,1.181-0.078,1.966-1.623,2.404
	c-0.386,0.11-0.766,0.137-1.154,0.215c-1.743,0.349-3.743,1.349-5.608,0.842c-2.028-0.549-3.438-2.991-4.489-4.299
	c-3.996-4.969-9.63-9.846-11.093-15.8c-0.831-3.376,0.619-5.99,4.364-7.647"/>
<path fill="#C2B59B" stroke="#231F20" stroke-width="0.8939" stroke-linecap="round" stroke-linejoin="round" stroke-miterlimit="10" d="
	M80.034,19.967c0.841-0.746,2.463-0.799,3.586-1.095L47.644,8.787L1.114,21.199l54.314,14.797l26.229-7.68
	c-1.483-0.868-2.59-0.615-3.803-1.268"/>
<path fill="#C49A6C" stroke="#231F20" stroke-width="0.8939" stroke-linecap="round" stroke-linejoin="round" stroke-miterlimit="10" d="
	M79.923,20.215L48.104,11.33L10.933,21.34l44.495,12.115c1.752-0.527,18.841-5.456,20.59-5.982c1.404-0.423,1.889-0.319,1.986-1.411
	c0.123-1.377-0.325-2.442,1.221-3.49"/>
<path fill="#C49A6C" stroke="#231F20" stroke-width="0.8939" stroke-linecap="round" stroke-linejoin="round" stroke-miterlimit="10" d="
	M79.59,22.256"/>
<polygon fill="#C49A6C" stroke="#231F20" stroke-width="0.8939" stroke-linecap="round" stroke-linejoin="round" stroke-miterlimit="10" points="
	1.114,71.24 1.114,21.199 55.428,35.996 55.428,86.037 "/>
<polyline fill="none" stroke="#231F20" stroke-width="0.8939" stroke-linecap="round" stroke-linejoin="round" stroke-miterlimit="10" points="
	79.923,20.213 48.104,11.329 48.104,13.469 79.59,22.256 "/>
<polygon fill="#603913" stroke="#231F20" stroke-width="0.8939" stroke-linecap="round" stroke-linejoin="round" stroke-miterlimit="10" points="
	18.828,55.324 18.828,34.672 10.932,32.528 10.932,53.179 "/>
<polygon fill="#603913" stroke="#231F20" stroke-width="0.8939" stroke-linecap="round" stroke-linejoin="round" stroke-miterlimit="10" points="
	41.515,61.587 41.515,40.935 33.62,38.791 33.62,59.442 "/>
<path fill="#C2B59B" stroke="#231F20" stroke-width="0.8939" stroke-linecap="round" stroke-linejoin="round" stroke-miterlimit="10" d="
	M79.965,20.308c-0.177,1.938,0.189,3.494,1.092,5.283c0.398,0.791,0.509,1.737,0.985,2.493c0.784,1.248,2.362,1.64,3.586,2.53
	c1.8,1.31,2.296,2.985,2.627,4.752c0.314,1.683,1.021,3.416,1.867,5.025c0.807,1.537,2.484,2.418,3.641,3.734
	c-0.576,0.502-2.116,0.495-2.554,1.089c-0.646,0.873,0.943,1.75,1.833,1.935c1.1,0.23,2.48-0.019,3.509-0.33
	c1.494-0.455,1.455-0.8,1.835-1.799v-0.112c0.186-0.757-2.378-2.122-2.92-2.946c-0.656-1.002-1.287-1.659-2.111-2.583
	c-1.231-1.376-1.589-3.797-2.008-5.485c-0.24-0.966-0.075-1.739-0.8-2.582c-0.698-0.811-1.958-1.842-2.882-2.472
	c-2.002-1.366-3.462-2.109-3.769-4.376c-0.214-1.578-1.222-4.005-0.415-5.504L79.965,20.308z"/>
<path fill="#8B5E3C" stroke="#231F20" stroke-width="0.8939" stroke-linecap="round" stroke-linejoin="round" stroke-miterlimit="10" d="
	M98.887,45.265v27.902l-43.459,12.87V35.996c1.954-0.588,19.246-5.578,21.2-6.166c1.244-0.375,2.523-0.889,3.812-1.149
	c0.583-0.117,0.804-0.358,1.335-0.121c0.696,0.311,1.006,1.967,0.938,2.519c-0.151,1.265-0.552,2.227-0.228,3.521
	c0.466,1.851,2.198,2.925,3.204,4.516c0.551,0.868,0.714,1.771,1.122,2.667c0.809,1.782,3.013,3.247,5.237,3.814
	c1.699,0.432,5.244,0.316,6.718-0.556"/>
<polyline fill="#754C29" stroke="#231F20" stroke-width="0.8939" stroke-linecap="round" stroke-linejoin="round" stroke-miterlimit="10" points="
	14.999,22.435 48.104,13.469 48.104,11.33 10.933,21.34 "/>
<polygon fill="#603913" stroke="#231F20" stroke-width="0.8939" stroke-linecap="round" stroke-linejoin="round" stroke-miterlimit="10" points="
	60.33,84.585 60.33,43.734 73.5,40.256 73.5,80.686 "/>
<g>
	
		<path fill="#C75A29" stroke="#231F20" stroke-width="0.8939" stroke-linecap="round" stroke-linejoin="round" stroke-miterlimit="10" d="
		M52.533,11.4l-0.713,4.631c0,0.569-1.957,1.03-4.37,1.03c-2.414,0-4.371-0.461-4.371-1.03L42.367,11.4"/>
	
		<ellipse fill="#603913" stroke="#231F20" stroke-width="0.8939" stroke-linecap="round" stroke-linejoin="round" stroke-miterlimit="10" cx="47.45" cy="11.4" rx="5.083" ry="1.199"/>
	
		<path fill="#00A651" stroke="#231F20" stroke-width="0.8939" stroke-linecap="round" stroke-linejoin="round" stroke-miterlimit="10" d="
		M50.369,11.182c0.588-0.291,1.827-0.741,2.166-1.234c0.622-0.902-0.016-1.703-1.303-1.503c0.811-0.866,0.277-2.298-1.199-2.119
		c0.752-1.522-3.441-3.815-3.05-0.979c-1.5-1.12-4.063-0.508-2.334,1.073c-1.576,0.371-2.486,1.647-0.703,2.466
		c-1.518,0.469-1.156,1.881,0.058,2.437c0,0,1.004,0.507,3.085,0.46S50.369,11.182,50.369,11.182z"/>
	<path fill="#BE1E2D" d="M48.708,6.57c0.101,0.246-0.003,0.494-0.231,0.553c-0.228,0.06-0.495-0.091-0.595-0.337
		c-0.101-0.247,0.002-0.494,0.231-0.553C48.34,6.173,48.607,6.324,48.708,6.57z"/>
	<path fill="#BE1E2D" d="M49.899,8.468c0.034,0.257-0.131,0.482-0.371,0.503c-0.239,0.02-0.46-0.172-0.494-0.429
		C49,8.285,49.166,8.059,49.405,8.039C49.643,8.019,49.865,8.21,49.899,8.468z"/>
	<path fill="#BE1E2D" d="M46.225,7.516c-0.079,0.25-0.332,0.416-0.565,0.369s-0.357-0.288-0.278-0.539
		c0.079-0.251,0.332-0.417,0.564-0.37C46.179,7.023,46.304,7.265,46.225,7.516z"/>
	<path fill="#BE1E2D" d="M46.842,9.954c-0.057,0.255-0.294,0.435-0.531,0.401c-0.236-0.034-0.382-0.267-0.326-0.522
		c0.057-0.255,0.294-0.434,0.531-0.4C46.752,9.465,46.899,9.699,46.842,9.954z"/>
</g>
<g>
	
		<path fill="#C75A29" stroke="#231F20" stroke-width="0.8939" stroke-linecap="round" stroke-linejoin="round" stroke-miterlimit="10" d="
		M44.043,13.577l-0.713,4.631c0,0.569-1.957,1.03-4.37,1.03c-2.414,0-4.371-0.461-4.371-1.03l-0.713-4.631"/>
	
		<ellipse fill="#603913" stroke="#231F20" stroke-width="0.8939" stroke-linecap="round" stroke-linejoin="round" stroke-miterlimit="10" cx="38.96" cy="13.577" rx="5.083" ry="1.199"/>
	
		<path fill="#00A651" stroke="#231F20" stroke-width="0.8939" stroke-linecap="round" stroke-linejoin="round" stroke-miterlimit="10" d="
		M41.879,13.358c0.588-0.291,1.827-0.741,2.166-1.233c0.622-0.902-0.016-1.704-1.303-1.504c0.811-0.866,0.277-2.298-1.199-2.119
		c0.752-1.522-3.441-3.815-3.05-0.979c-1.5-1.12-4.063-0.508-2.334,1.074c-1.576,0.37-2.486,1.647-0.703,2.466
		c-1.518,0.469-1.156,1.881,0.058,2.437c0,0,1.004,0.507,3.085,0.46S41.879,13.358,41.879,13.358z"/>
	<path fill="#BE1E2D" d="M40.218,8.747c0.101,0.246-0.003,0.494-0.231,0.553c-0.228,0.06-0.495-0.091-0.595-0.337
		c-0.101-0.246,0.002-0.494,0.231-0.553C39.85,8.35,40.117,8.5,40.218,8.747z"/>
	<path fill="#BE1E2D" d="M41.409,10.645c0.034,0.258-0.131,0.482-0.371,0.503c-0.239,0.021-0.46-0.171-0.494-0.429
		s0.131-0.482,0.37-0.503C41.153,10.196,41.375,10.387,41.409,10.645z"/>
	<path fill="#BE1E2D" d="M37.735,9.693c-0.079,0.251-0.332,0.416-0.565,0.37c-0.233-0.047-0.357-0.288-0.278-0.539
		s0.332-0.417,0.564-0.37S37.814,9.442,37.735,9.693z"/>
	<path fill="#BE1E2D" d="M38.352,12.131c-0.057,0.254-0.294,0.434-0.531,0.4c-0.236-0.033-0.382-0.267-0.326-0.522
		c0.057-0.254,0.294-0.434,0.531-0.4C38.262,11.642,38.409,11.876,38.352,12.131z"/>
</g>
<g>
	
		<path fill="#C75A29" stroke="#231F20" stroke-width="0.8939" stroke-linecap="round" stroke-linejoin="round" stroke-miterlimit="10" d="
		M35.553,15.755l-0.713,4.631c0,0.569-1.957,1.03-4.37,1.03c-2.414,0-4.371-0.461-4.371-1.03l-0.713-4.631"/>
	
		<ellipse fill="#603913" stroke="#231F20" stroke-width="0.8939" stroke-linecap="round" stroke-linejoin="round" stroke-miterlimit="10" cx="30.47" cy="15.755" rx="5.083" ry="1.198"/>
	
		<path fill="#00A651" stroke="#231F20" stroke-width="0.8939" stroke-linecap="round" stroke-linejoin="round" stroke-miterlimit="10" d="
		M33.39,15.536c0.588-0.291,1.827-0.741,2.166-1.233c0.622-0.902-0.016-1.703-1.303-1.503c0.811-0.866,0.277-2.298-1.199-2.119
		c0.752-1.522-3.441-3.815-3.05-0.979c-1.5-1.12-4.063-0.507-2.334,1.074c-1.576,0.37-2.486,1.647-0.703,2.466
		c-1.518,0.469-1.156,1.881,0.058,2.438c0,0,1.004,0.507,3.085,0.46S33.39,15.536,33.39,15.536z"/>
	<path fill="#BE1E2D" d="M31.728,10.924c0.101,0.246-0.003,0.494-0.231,0.553c-0.228,0.06-0.495-0.091-0.595-0.337
		c-0.101-0.246,0.002-0.494,0.231-0.553C31.36,10.527,31.627,10.678,31.728,10.924z"/>
	<path fill="#BE1E2D" d="M32.919,12.822c0.034,0.257-0.131,0.482-0.371,0.502c-0.239,0.021-0.46-0.171-0.494-0.429
		s0.131-0.482,0.37-0.503C32.663,12.373,32.885,12.564,32.919,12.822z"/>
	<path fill="#BE1E2D" d="M29.245,11.87c-0.079,0.251-0.332,0.417-0.565,0.37s-0.357-0.288-0.278-0.539s0.332-0.417,0.564-0.369
		C29.199,11.378,29.324,11.619,29.245,11.87z"/>
	<path fill="#BE1E2D" d="M29.862,14.308c-0.057,0.255-0.294,0.434-0.531,0.4c-0.236-0.033-0.382-0.267-0.326-0.522
		c0.057-0.254,0.294-0.434,0.531-0.4C29.772,13.82,29.919,14.053,29.862,14.308z"/>
</g>
<g>
	
		<path fill="#C75A29" stroke="#231F20" stroke-width="0.8939" stroke-linecap="round" stroke-linejoin="round" stroke-miterlimit="10" d="
		M27.063,17.932l-0.713,4.631c0,0.569-1.957,1.03-4.37,1.03c-2.414,0-4.371-0.461-4.371-1.03l-0.713-4.631"/>
	
		<ellipse fill="#603913" stroke="#231F20" stroke-width="0.8939" stroke-linecap="round" stroke-linejoin="round" stroke-miterlimit="10" cx="21.98" cy="17.932" rx="5.083" ry="1.198"/>
	
		<path fill="#00A651" stroke="#231F20" stroke-width="0.8939" stroke-linecap="round" stroke-linejoin="round" stroke-miterlimit="10" d="
		M24.899,17.713c0.588-0.291,1.827-0.741,2.166-1.234c0.622-0.902-0.016-1.703-1.303-1.503c0.811-0.866,0.277-2.298-1.199-2.119
		c0.752-1.522-3.441-3.815-3.05-0.979c-1.5-1.12-4.063-0.507-2.334,1.074c-1.576,0.37-2.486,1.647-0.703,2.466
		c-1.518,0.469-1.156,1.881,0.058,2.437c0,0,1.004,0.507,3.085,0.46S24.899,17.713,24.899,17.713z"/>
	<path fill="#BE1E2D" d="M23.238,13.101c0.101,0.246-0.003,0.494-0.231,0.553c-0.228,0.06-0.495-0.091-0.595-0.337
		s0.002-0.493,0.231-0.553C22.87,12.704,23.137,12.855,23.238,13.101z"/>
	<path fill="#BE1E2D" d="M24.429,14.999c0.034,0.257-0.131,0.482-0.371,0.503c-0.239,0.02-0.46-0.172-0.494-0.429
		c-0.034-0.258,0.131-0.483,0.37-0.503C24.173,14.55,24.395,14.742,24.429,14.999z"/>
	<path fill="#BE1E2D" d="M20.755,14.047c-0.079,0.251-0.332,0.417-0.565,0.37s-0.357-0.288-0.278-0.539
		c0.079-0.251,0.332-0.417,0.564-0.37C20.709,13.555,20.834,13.796,20.755,14.047z"/>
	<path fill="#BE1E2D" d="M21.372,16.485c-0.057,0.255-0.294,0.435-0.531,0.401c-0.236-0.034-0.382-0.267-0.326-0.522
		c0.057-0.255,0.294-0.434,0.531-0.4C21.282,15.997,21.429,16.23,21.372,16.485z"/>
</g>
<path fill="#8B5E3C" stroke="#231F20" stroke-width="0.8939" stroke-linecap="round" stroke-linejoin="round" stroke-miterlimit="10" d="
	M22.943,78.726c0,0.521-2.708,0.943-6.046,0.943s-6.046-0.422-6.046-0.943c0,0-0.506-2.43-0.506-5.916
	c0-3.488,0.506-5.918,0.506-5.918c0-0.521,2.708-0.943,6.046-0.943s6.046,0.422,6.046,0.943c0,0,0.506,2.2,0.506,5.918
	C23.449,76.525,22.943,78.726,22.943,78.726z"/>
<ellipse fill="#A97C50" stroke="#231F20" stroke-width="0.8939" stroke-linecap="round" stroke-linejoin="round" stroke-miterlimit="10" cx="16.896" cy="66.682" rx="6.046" ry="0.943"/>
<g>
	
		<path fill="#603913" stroke="#231F20" stroke-width="0.8939" stroke-linecap="round" stroke-linejoin="round" stroke-miterlimit="10" d="
		M52.93,29.655c-0.117,0.502-0.578,0.854-1.031,0.786l0,0c-0.452-0.067-0.725-0.529-0.606-1.03l0.694-2.965
		c0.117-0.501,0.579-0.853,1.031-0.785l0,0c0.453,0.067,0.725,0.529,0.607,1.03L52.93,29.655z"/>
	
		<path fill="#603913" stroke="#231F20" stroke-width="0.8939" stroke-linecap="round" stroke-linejoin="round" stroke-miterlimit="10" d="
		M59.647,29.292c0.189,0.488-0.013,0.971-0.452,1.08l0,0c-0.439,0.109-0.949-0.197-1.139-0.684l-1.122-2.88
		c-0.189-0.487,0.013-0.97,0.452-1.079l0,0c0.439-0.109,0.949,0.197,1.139,0.684L59.647,29.292z"/>
	
		<path fill="#603913" stroke="#231F20" stroke-width="0.8939" stroke-linecap="round" stroke-linejoin="round" stroke-miterlimit="10" d="
		M56.277,27.438c-0.061,0.508-0.479,0.892-0.938,0.857l0,0c-0.458-0.034-0.781-0.474-0.722-0.981l0.354-3.003
		c0.06-0.508,0.479-0.891,0.938-0.856l0,0c0.458,0.034,0.782,0.474,0.722,0.981L56.277,27.438z"/>
	
		<path fill="#603913" stroke="#231F20" stroke-width="0.8939" stroke-linecap="round" stroke-linejoin="round" stroke-miterlimit="10" d="
		M60.51,23.633v1.712c0,0.663-2.275,1.199-5.082,1.199c-2.809,0-5.083-0.536-5.083-1.199v-1.712"/>
	
		<ellipse fill="#8B5E3C" stroke="#231F20" stroke-width="0.8939" stroke-linecap="round" stroke-linejoin="round" stroke-miterlimit="10" cx="55.428" cy="23.633" rx="5.083" ry="1.199"/>
</g>
<polygon fill="#E3DCB6" stroke="#231F20" stroke-linecap="round" stroke-linejoin="round" stroke-miterlimit="10" points="
	37.532,59.184 41.217,40.246 33.322,38.103 29.637,57.038 "/>
<polygon fill="#E3DCB6" stroke="#231F20" stroke-linecap="round" stroke-linejoin="round" stroke-miterlimit="10" points="
	15.143,53.609 18.828,34.672 10.932,32.528 7.247,51.464 "/>
</svg>
