<?xml version="1.0" encoding="utf-8"?>
<!-- Generator: Adobe Illustrator 15.1.0, SVG Export Plug-In . SVG Version: 6.00 Build 0)  -->
<!DOCTYPE svg PUBLIC "-//W3C//DTD SVG 1.1//EN" "http://www.w3.org/Graphics/SVG/1.1/DTD/svg11.dtd">
<svg version="1.1" id="Layer_1" xmlns="http://www.w3.org/2000/svg" xmlns:xlink="http://www.w3.org/1999/xlink" x="0px" y="0px"
	 width="100px" height="100px" viewBox="0 0 100 100" enable-background="new 0 0 100 100" xml:space="preserve">
<path fill="#C49A6C" stroke="#231F20" stroke-miterlimit="10" d="M57.354,11.141c0.041,0.307-0.176,0.59-0.482,0.63l-0.289,0.039
	c-0.308,0.041-0.59-0.175-0.63-0.482l-0.521-3.91c-0.041-0.307,0.175-0.59,0.482-0.63l0.289-0.039
	c0.307-0.041,0.59,0.175,0.63,0.482L57.354,11.141z"/>
<path fill="#C49A6C" stroke="#231F20" stroke-miterlimit="10" d="M62.527,13.106c0.041,0.307-0.176,0.59-0.482,0.63l-0.289,0.039
	c-0.308,0.041-0.59-0.175-0.63-0.482l-0.521-3.91c-0.041-0.307,0.175-0.59,0.482-0.63l0.289-0.039
	c0.307-0.041,0.59,0.175,0.63,0.482L62.527,13.106z"/>
<path fill="#3C2415" stroke="#231F20" stroke-linecap="round" stroke-linejoin="round" stroke-miterlimit="10" d="M81.488,20.486
	c-0.056,1.103,0.499,2.188,0.593,3.287c0.053,0.596-0.003,1.178,0.129,1.771c0.438,1.99,1.505,3.377,2.71,4.96
	c0.911,1.196,1.844,2.384,2.778,3.542c0.831,1.033,1.878,2.084,2.395,3.334c0.836,2.024,0.707,4.345,1.572,6.362
	c0.589,1.37,1.228,2.745,1.974,4.035c0.559,0.965,1.299,1.804,1.415,2.926c0.155,1.478-0.078,2.461-1.623,3.009
	c-0.386,0.138-0.766,0.172-1.154,0.27c-1.743,0.437-3.743,1.688-5.608,1.054c-2.028-0.687-3.438-3.743-4.489-5.38
	c-3.996-6.22-9.63-12.323-11.093-19.775c-0.831-4.226,0.619-7.498,4.364-9.571"/>
<path fill="#C2B59B" stroke="#231F20" stroke-linecap="round" stroke-linejoin="round" stroke-miterlimit="10" d="M80.034,20.984
	c0.841-0.934,2.463-1,3.586-1.371L47.644,6.991L1.114,22.525l54.314,18.52l26.229-9.612c-1.483-1.086-2.59-0.77-3.803-1.587"/>
<path fill="#C49A6C" stroke="#231F20" stroke-linecap="round" stroke-linejoin="round" stroke-miterlimit="10" d="M79.923,21.294
	l-31.819-11.12L10.933,22.702l44.495,15.163c1.752-0.66,18.841-6.828,20.59-7.487c1.404-0.529,1.889-0.399,1.986-1.766
	c0.123-1.724-0.325-3.056,1.221-4.368"/>
<path fill="#C49A6C" stroke="#231F20" stroke-linecap="round" stroke-linejoin="round" stroke-miterlimit="10" d="M79.59,23.849"/>
<polygon fill="#C49A6C" stroke="#231F20" stroke-linecap="round" stroke-linejoin="round" stroke-miterlimit="10" points="
	1.114,75.968 1.114,22.525 55.428,41.045 55.428,94.487 "/>
<polyline fill="none" stroke="#231F20" stroke-linecap="round" stroke-linejoin="round" stroke-miterlimit="10" points="
	79.923,21.292 48.104,10.172 48.104,12.851 79.59,23.849 "/>
<polygon fill="#603913" stroke="#231F20" stroke-linecap="round" stroke-linejoin="round" stroke-miterlimit="10" points="
	18.828,56.048 18.828,39.388 10.932,36.706 10.932,53.362 "/>
<polygon fill="#603913" stroke="#231F20" stroke-linecap="round" stroke-linejoin="round" stroke-miterlimit="10" points="
	41.515,63.886 41.515,47.227 33.62,44.543 33.62,61.201 "/>
<path fill="#C2B59B" stroke="#231F20" stroke-linecap="round" stroke-linejoin="round" stroke-miterlimit="10" d="M79.965,21.411
	c-0.177,2.425,0.189,4.373,1.092,6.612c0.398,0.99,0.509,2.175,0.985,3.121c0.784,1.562,2.362,2.053,3.586,3.167
	c1.8,1.64,2.296,3.735,2.627,5.948c0.314,2.106,1.021,4.275,1.867,6.29c0.807,1.924,2.484,3.026,3.641,4.674
	c-0.576,0.629-2.116,0.619-2.554,1.363c-0.646,1.092,0.943,2.189,1.833,2.421c1.1,0.288,2.48-0.023,3.509-0.413
	c1.494-0.569,1.455-1.001,1.835-2.252V52.2c0.186-0.948-2.378-2.655-2.92-3.688c-0.656-1.255-1.287-2.077-2.111-3.232
	c-1.231-1.723-1.589-4.753-2.008-6.865c-0.24-1.209-0.075-2.176-0.8-3.232c-0.698-1.015-1.958-2.305-2.882-3.094
	c-2.002-1.709-3.462-2.64-3.769-5.477c-0.214-1.976-1.222-5.013-0.415-6.889L79.965,21.411z"/>
<path fill="#8B5E3C" stroke="#231F20" stroke-linecap="round" stroke-linejoin="round" stroke-miterlimit="10" d="M98.887,52.646
	V78.38L55.428,94.487V41.045c1.954-0.736,19.246-6.98,21.2-7.717c1.244-0.47,2.523-1.113,3.812-1.439
	c0.583-0.146,0.804-0.448,1.335-0.151c0.696,0.389,1.006,2.461,0.938,3.152c-0.151,1.583-0.552,2.788-0.228,4.407
	c0.466,2.316,2.198,3.661,3.204,5.651c0.551,1.087,0.714,2.216,1.122,3.339c0.809,2.23,3.013,4.063,5.237,4.773
	c1.699,0.54,5.244,0.396,6.718-0.695"/>
<polyline fill="#754C29" stroke="#231F20" stroke-linecap="round" stroke-linejoin="round" stroke-miterlimit="10" points="
	14.999,24.073 48.104,12.851 48.104,10.174 10.933,22.702 "/>
<polygon fill="#603913" stroke="#231F20" stroke-linecap="round" stroke-linejoin="round" stroke-miterlimit="10" points="
	60.33,92.67 60.33,50.73 73.5,46.377 73.5,87.789 "/>
<g>
	<path fill="#C75A29" stroke="#231F20" stroke-linecap="round" stroke-linejoin="round" stroke-miterlimit="10" d="M52.533,10.262
		l-0.713,5.796c0,0.712-1.957,1.29-4.37,1.29c-2.414,0-4.371-0.577-4.371-1.29l-0.713-5.796"/>
	
		<ellipse fill="#603913" stroke="#231F20" stroke-linecap="round" stroke-linejoin="round" stroke-miterlimit="10" cx="47.45" cy="10.262" rx="5.083" ry="1.5"/>
	<path fill="#00A651" stroke="#231F20" stroke-linecap="round" stroke-linejoin="round" stroke-miterlimit="10" d="M50.369,9.988
		c0.588-0.364,1.827-0.928,2.166-1.544c0.622-1.129-0.016-2.132-1.303-1.882c0.811-1.083,0.277-2.876-1.199-2.652
		c0.752-1.905-3.441-4.775-3.05-1.226c-1.5-1.401-4.063-0.635-2.334,1.344c-1.576,0.463-2.486,2.062-0.703,3.086
		c-1.518,0.587-1.156,2.354,0.058,3.05c0,0,1.004,0.635,3.085,0.576S50.369,9.988,50.369,9.988z"/>
	
		<ellipse transform="matrix(0.9504 -0.311 0.311 0.9504 1.0416 15.2355)" fill="#BE1E2D" cx="48.295" cy="4.352" rx="0.435" ry="0.586"/>
	
		<ellipse transform="matrix(0.9943 -0.1067 0.1067 0.9943 -0.4259 5.3146)" fill="#BE1E2D" cx="49.467" cy="6.638" rx="0.435" ry="0.586"/>
	
		<ellipse transform="matrix(0.9698 0.2437 -0.2437 0.9698 2.6716 -11.0038)" fill="#BE1E2D" cx="45.803" cy="5.294" rx="0.435" ry="0.586"/>
	
		<ellipse transform="matrix(0.9846 0.1746 -0.1746 0.9846 2.1751 -7.9745)" fill="#BE1E2D" cx="46.414" cy="8.376" rx="0.435" ry="0.586"/>
</g>
<g>
	<path fill="#C75A29" stroke="#231F20" stroke-linecap="round" stroke-linejoin="round" stroke-miterlimit="10" d="M44.043,12.987
		l-0.713,5.796c0,0.712-1.957,1.29-4.37,1.29c-2.414,0-4.371-0.577-4.371-1.29l-0.713-5.796"/>
	
		<ellipse fill="#603913" stroke="#231F20" stroke-linecap="round" stroke-linejoin="round" stroke-miterlimit="10" cx="38.96" cy="12.987" rx="5.083" ry="1.5"/>
	<path fill="#00A651" stroke="#231F20" stroke-linecap="round" stroke-linejoin="round" stroke-miterlimit="10" d="M41.879,12.713
		c0.588-0.364,1.827-0.928,2.166-1.544c0.622-1.129-0.016-2.132-1.303-1.882c0.811-1.083,0.277-2.876-1.199-2.652
		c0.752-1.905-3.441-4.775-3.05-1.226c-1.5-1.401-4.063-0.635-2.334,1.344c-1.576,0.463-2.486,2.062-0.703,3.086
		c-1.518,0.587-1.156,2.354,0.058,3.05c0,0,1.004,0.635,3.085,0.576S41.879,12.713,41.879,12.713z"/>
	
		<ellipse transform="matrix(0.9504 -0.311 0.311 0.9504 -0.2268 12.7302)" fill="#BE1E2D" cx="39.804" cy="7.076" rx="0.435" ry="0.586"/>
	
		<ellipse transform="matrix(0.9943 -0.1067 0.1067 0.9943 -0.7649 4.4245)" fill="#BE1E2D" cx="40.977" cy="9.363" rx="0.435" ry="0.586"/>
	
		<ellipse transform="matrix(0.9698 0.2437 -0.2437 0.9698 3.0796 -8.8523)" fill="#BE1E2D" cx="37.313" cy="8.019" rx="0.435" ry="0.586"/>
	
		<ellipse transform="matrix(0.9846 0.1746 -0.1746 0.9846 2.5204 -6.4504)" fill="#BE1E2D" cx="37.923" cy="11.1" rx="0.435" ry="0.586"/>
</g>
<g>
	<path fill="#C75A29" stroke="#231F20" stroke-linecap="round" stroke-linejoin="round" stroke-miterlimit="10" d="M35.553,15.712
		l-0.713,5.796c0,0.712-1.957,1.29-4.37,1.29c-2.414,0-4.371-0.577-4.371-1.29l-0.713-5.796"/>
	
		<ellipse fill="#603913" stroke="#231F20" stroke-linecap="round" stroke-linejoin="round" stroke-miterlimit="10" cx="30.47" cy="15.712" rx="5.083" ry="1.5"/>
	<path fill="#00A651" stroke="#231F20" stroke-linecap="round" stroke-linejoin="round" stroke-miterlimit="10" d="M33.39,15.438
		c0.588-0.364,1.827-0.928,2.166-1.544c0.622-1.129-0.016-2.132-1.303-1.882c0.811-1.083,0.277-2.876-1.199-2.652
		c0.752-1.905-3.441-4.775-3.05-1.226c-1.5-1.401-4.063-0.635-2.334,1.344c-1.576,0.463-2.486,2.062-0.703,3.086
		c-1.518,0.587-1.156,2.354,0.058,3.05c0,0,1.004,0.635,3.085,0.576S33.39,15.438,33.39,15.438z"/>
	
		<ellipse transform="matrix(0.9504 -0.311 0.311 0.9504 -1.4953 10.225)" fill="#BE1E2D" cx="31.315" cy="9.801" rx="0.435" ry="0.586"/>
	
		<ellipse transform="matrix(0.9943 -0.1067 0.1067 0.9943 -1.1041 3.5344)" fill="#BE1E2D" cx="32.487" cy="12.088" rx="0.435" ry="0.586"/>
	
		<ellipse transform="matrix(0.9698 0.2437 -0.2437 0.9698 3.4878 -6.701)" fill="#BE1E2D" cx="28.823" cy="10.744" rx="0.435" ry="0.586"/>
	
		<ellipse transform="matrix(0.9846 0.1746 -0.1746 0.9846 2.8658 -4.9264)" fill="#BE1E2D" cx="29.434" cy="13.825" rx="0.435" ry="0.586"/>
</g>
<g>
	<path fill="#C75A29" stroke="#231F20" stroke-linecap="round" stroke-linejoin="round" stroke-miterlimit="10" d="M27.063,18.437
		l-0.713,5.796c0,0.712-1.957,1.29-4.37,1.29c-2.414,0-4.371-0.577-4.371-1.29l-0.713-5.796"/>
	
		<ellipse fill="#603913" stroke="#231F20" stroke-linecap="round" stroke-linejoin="round" stroke-miterlimit="10" cx="21.98" cy="18.437" rx="5.083" ry="1.5"/>
	<path fill="#00A651" stroke="#231F20" stroke-linecap="round" stroke-linejoin="round" stroke-miterlimit="10" d="M24.899,18.163
		c0.588-0.364,1.827-0.928,2.166-1.544c0.622-1.129-0.016-2.132-1.303-1.882c0.811-1.083,0.277-2.876-1.199-2.652
		c0.752-1.905-3.441-4.775-3.05-1.226c-1.5-1.401-4.063-0.635-2.334,1.344c-1.576,0.463-2.486,2.062-0.703,3.086
		c-1.518,0.587-1.156,2.354,0.058,3.05c0,0,1.004,0.635,3.085,0.576S24.899,18.163,24.899,18.163z"/>
	
		<ellipse transform="matrix(0.9504 -0.311 0.311 0.9504 -2.7637 7.7196)" fill="#BE1E2D" cx="22.824" cy="12.526" rx="0.435" ry="0.586"/>
	
		<ellipse transform="matrix(0.9943 -0.1067 0.1067 0.9943 -1.4432 2.6443)" fill="#BE1E2D" cx="23.997" cy="14.812" rx="0.435" ry="0.586"/>
	
		<ellipse transform="matrix(0.9698 0.2437 -0.2437 0.9698 3.8958 -4.5496)" fill="#BE1E2D" cx="20.333" cy="13.469" rx="0.435" ry="0.586"/>
	
		<ellipse transform="matrix(0.9846 0.1746 -0.1746 0.9846 3.2111 -3.4022)" fill="#BE1E2D" cx="20.943" cy="16.55" rx="0.435" ry="0.586"/>
</g>
<path fill="#8B5E3C" stroke="#231F20" stroke-linecap="round" stroke-linejoin="round" stroke-miterlimit="10" d="M22.943,85.337
	c0,0.652-2.708,1.181-6.046,1.181s-6.046-0.528-6.046-1.181c0,0-0.506-3.041-0.506-7.405c0-4.365,0.506-7.406,0.506-7.406
	c0-0.652,2.708-1.181,6.046-1.181s6.046,0.528,6.046,1.181c0,0,0.506,2.754,0.506,7.406C23.449,82.583,22.943,85.337,22.943,85.337z
	"/>
<ellipse fill="#A97C50" stroke="#231F20" stroke-linecap="round" stroke-linejoin="round" stroke-miterlimit="10" cx="16.896" cy="70.262" rx="6.046" ry="1.181"/>
<g>
	<path fill="#603913" stroke="#231F20" stroke-linecap="round" stroke-linejoin="round" stroke-miterlimit="10" d="M52.93,33.11
		c-0.117,0.628-0.578,1.068-1.031,0.983l0,0c-0.452-0.084-0.725-0.662-0.606-1.289l0.694-3.711c0.117-0.627,0.579-1.067,1.031-0.982
		l0,0c0.453,0.084,0.725,0.662,0.607,1.289L52.93,33.11z"/>
	<path fill="#603913" stroke="#231F20" stroke-linecap="round" stroke-linejoin="round" stroke-miterlimit="10" d="M59.647,32.656
		c0.189,0.61-0.013,1.215-0.452,1.352l0,0c-0.439,0.137-0.949-0.246-1.139-0.856l-1.122-3.605c-0.189-0.609,0.013-1.214,0.452-1.351
		l0,0c0.439-0.137,0.949,0.246,1.139,0.855L59.647,32.656z"/>
	<path fill="#603913" stroke="#231F20" stroke-linecap="round" stroke-linejoin="round" stroke-miterlimit="10" d="M56.277,30.334
		c-0.061,0.636-0.479,1.116-0.938,1.073l0,0c-0.458-0.042-0.781-0.593-0.722-1.229l0.354-3.759c0.06-0.635,0.479-1.115,0.938-1.072
		l0,0c0.458,0.042,0.782,0.593,0.722,1.228L56.277,30.334z"/>
	<path fill="#603913" stroke="#231F20" stroke-linecap="round" stroke-linejoin="round" stroke-miterlimit="10" d="M60.51,25.573
		v2.143c0,0.829-2.275,1.5-5.082,1.5c-2.809,0-5.083-0.671-5.083-1.5v-2.143"/>
	
		<ellipse fill="#8B5E3C" stroke="#231F20" stroke-linecap="round" stroke-linejoin="round" stroke-miterlimit="10" cx="55.428" cy="25.573" rx="5.083" ry="1.5"/>
</g>
</svg>
