<?xml version="1.0" encoding="utf-8"?>
<!-- Generator: Adobe Illustrator 15.1.0, SVG Export Plug-In . SVG Version: 6.00 Build 0)  -->
<!DOCTYPE svg PUBLIC "-//W3C//DTD SVG 1.1//EN" "http://www.w3.org/Graphics/SVG/1.1/DTD/svg11.dtd">
<svg version="1.1" id="Layer_1" xmlns="http://www.w3.org/2000/svg" xmlns:xlink="http://www.w3.org/1999/xlink" x="0px" y="0px"
	 width="120px" height="150px" viewBox="-10 -50 120 150" enable-background="new 0 0 100 100" xml:space="preserve">
<g id="Layer_2">
	<polyline fill="#C49A6C" stroke="#231F20" stroke-miterlimit="10" points="0.094,11.646 0.094,68.604 28.984,75.309 28.984,17.111 
			"/>
	<polyline fill="#8B5E3C" stroke="#231F20" stroke-miterlimit="10" points="72.32,8.445 72.32,58.98 28.984,75.309 28.984,17.111 	
		"/>
	<polygon fill="#C49A6C" stroke="#231F20" stroke-linecap="round" stroke-linejoin="round" stroke-miterlimit="10" points="
		47.404,38.497 35.86,36.367 35.863,32.925 47.406,35.055 	"/>
	<polygon fill="#8B5E3C" stroke="#231F20" stroke-linecap="round" stroke-linejoin="round" stroke-miterlimit="10" points="
		47.406,35.055 79.195,27.576 79.193,31.017 47.404,38.497 	"/>
	<polygon fill="#9B8579" stroke="#231F20" stroke-linecap="round" stroke-linejoin="round" stroke-miterlimit="10" points="
		47.406,35.055 79.195,27.576 67.652,25.446 35.863,32.925 	"/>
	<polygon fill="#3C2415" stroke="#231F20" stroke-linecap="round" stroke-linejoin="round" stroke-miterlimit="10" points="
		35.774,22.088 67.564,14.608 67.582,25.557 35.792,33.036 	"/>
	<path fill="#D49553" stroke="#231F20" stroke-miterlimit="10" d="M17.27-6.137C15.286-6,11.229-3.461,9.229-2.314
		C7.091-1.089,5.371,0.67,3.692,2.382C1.607,4.508-1.74,6.798-3.435,9.122c-3.232,4.429,3.659,6.265,6.831,6.676
		c4.646,0.603,8.693,0.059,13.234,2.177c4.483,2.09,9.292,3.541,14.315,2.513c4.59-0.939,8.14-2.998,12.992-2.985
		c4.905,0.013,8.979-1.066,13.375-3.409c3.545-1.889,7.961-1.524,11.931-2.083c2.161-0.304,8.312-0.68,8.725-3.667
		c0.343-2.477-4.583-5.015-6.354-6.076c-2.572-1.541-5.161-3.33-7.698-4.946c-1.651-1.052-1.964-2.074-3.194-3.3
		C59.691-7,57.697-7.741,56.461-8.532c-6.169-3.947-12.752-2.06-19.599-2.077c-3.342-0.008-6.292,0.447-9.376,1.059
		C24.854-9.029,19.253-6.274,17.27-6.137z"/>
	
		<line fill="none" stroke="#231F20" stroke-linecap="round" stroke-linejoin="round" stroke-miterlimit="10" x1="67.652" y1="25.446" x2="42.372" y2="20.536"/>
	<polyline fill="#8B5E3C" stroke="#231F20" stroke-linecap="round" stroke-linejoin="round" stroke-miterlimit="10" points="
		46.538,19.719 46.538,30.656 48.811,30.137 48.811,19.185 	"/>
	<polyline fill="#8B5E3C" stroke="#231F20" stroke-linecap="round" stroke-linejoin="round" stroke-miterlimit="10" points="
		56.393,17.387 56.393,28.324 58.666,27.805 58.666,16.853 	"/>
	<g>
		<ellipse fill="#3C2415" stroke="#231F20" stroke-miterlimit="10" cx="7.105" cy="43.859" rx="3.25" ry="4.343"/>
		<line fill="none" stroke="#231F20" stroke-miterlimit="10" x1="7.105" y1="39.516" x2="7.105" y2="48.203"/>
		<line fill="none" stroke="#231F20" stroke-miterlimit="10" x1="3.96" y1="42.781" x2="10.303" y2="44.608"/>
	</g>
	<g>
		<ellipse fill="#3C2415" stroke="#231F20" stroke-miterlimit="10" cx="18.242" cy="45.443" rx="3.25" ry="4.343"/>
		<line fill="none" stroke="#231F20" stroke-miterlimit="10" x1="18.242" y1="41.1" x2="18.242" y2="49.787"/>
		<line fill="none" stroke="#231F20" stroke-miterlimit="10" x1="15.097" y1="44.365" x2="21.44" y2="46.192"/>
	</g>
</g>
<g id="Layer_1_1_">
	<polygon fill="#726658" stroke="#231F20" stroke-linecap="round" stroke-linejoin="round" stroke-miterlimit="10" points="
		17.82,50.674 66.393,40.21 97.588,44.949 69.748,59.361 	"/>
	<polygon fill="#9B8579" stroke="#231F20" stroke-linecap="round" stroke-linejoin="round" stroke-miterlimit="10" points="
		69.748,100.204 69.748,59.361 17.82,50.674 17.82,91.518 	"/>
	<polygon fill="#726658" stroke="#231F20" stroke-linecap="round" stroke-linejoin="round" stroke-miterlimit="10" points="
		97.588,85.791 97.588,44.949 69.748,59.361 69.748,100.204 	"/>
	<polygon fill="#9B8579" stroke="#231F20" stroke-linecap="round" stroke-linejoin="round" stroke-miterlimit="10" points="
		18.633,50.676 67.205,40.21 69.748,41.77 21.176,52.234 	"/>
	<polyline fill="#8B5E3C" stroke="#231F20" stroke-miterlimit="10" points="51.854,97.241 51.905,69.16 63.555,70.869 
		63.555,99.023 	"/>
	<polygon fill="#3C2415" stroke="#231F20" stroke-linecap="round" stroke-linejoin="round" stroke-miterlimit="10" points="
		88.207,72.622 88.207,57.773 94.02,54.604 94.02,68.091 	"/>
	<polygon fill="#C49A6C" stroke="#231F20" stroke-linecap="round" stroke-linejoin="round" stroke-miterlimit="10" points="
		88.207,72.711 88.207,57.861 88.207,57.943 81.619,61.165 81.619,75.355 88.207,72.792 	"/>
	<polygon fill="#C49A6C" stroke="#231F20" stroke-linecap="round" stroke-linejoin="round" stroke-miterlimit="10" points="
		90.543,75.355 87.086,60.914 92.002,56.48 95.139,69.598 	"/>
	<path fill="#8DC7E1" stroke="#231F20" stroke-miterlimit="10" d="M67.52,36.673c-4.219-1.807-7.125,3.54-9.849,5.724
		c-3.985,3.197-9.362,5.481-14.21,7.026c-4.641,1.479-10.336,1.394-15.138,0.864c-2.962-0.325-10.423-4.558-12.931-1.738
		c-1.304,1.464,0.149,3.738-0.005,5.411c-0.226,2.452-1.08,4.626-1.206,7.12c-0.213,4.209,1.296,5.104,4.572,2.162
		c8.176-7.336,15.246-1.594,24.28,0.814c5.669,1.512,11.533,1.066,17.302,0.68c1.847-0.125,4.285-0.233,5.974,0.722
		c1.489,0.842,1.313,4.481,3.807,3.551c1.219-0.456,1.738-2.071,2.285-3.094c1.191-2.228,3.727-3.485,5.879-4.591
		c4.562-2.34,9.859-6.03,15.209-5.518c3.621,0.351,6.588,2.309,5.609-2.818c-0.431-2.25,1.598-11.423-0.912-12.064
		c-5.41-1.383-11.365,1.575-16.885,1.063C76.42,41.537,71.736,38.48,67.52,36.673z"/>
	<path fill="#1C75BC" d="M69.465,57.316c2.131-3.1,8.904-3.051,12.137-4.162c5.224-1.799,9.816-6.326,15.08-7.659
		c-0.312,6.487-0.221,8.118-6.803,8.331c-6.887,0.224-12.084,4.637-17.596,8.011c-0.627-0.76-2.773-3.603-2.621-4.321"/>
	
		<line fill="none" stroke="#231F20" stroke-width="0.5" stroke-linecap="round" stroke-linejoin="round" stroke-miterlimit="10" x1="88.879" y1="62.83" x2="91.113" y2="60.844"/>
	
		<line fill="none" stroke="#231F20" stroke-width="0.5" stroke-linecap="round" stroke-linejoin="round" stroke-miterlimit="10" x1="89.695" y1="65.312" x2="92.033" y2="63.171"/>
	
		<line fill="none" stroke="#231F20" stroke-width="0.5" stroke-linecap="round" stroke-linejoin="round" stroke-miterlimit="10" x1="90.254" y1="67.602" x2="92.449" y2="65.616"/>
	
		<line fill="none" stroke="#231F20" stroke-width="0.5" stroke-linecap="round" stroke-linejoin="round" stroke-miterlimit="10" x1="90.865" y1="70.193" x2="93.32" y2="67.936"/>
	
		<line fill="none" stroke="#231F20" stroke-width="0.5" stroke-linecap="round" stroke-linejoin="round" stroke-miterlimit="10" x1="83.043" y1="63.398" x2="86.783" y2="61.957"/>
	
		<line fill="none" stroke="#231F20" stroke-width="0.5" stroke-linecap="round" stroke-linejoin="round" stroke-miterlimit="10" x1="83.465" y1="65.986" x2="86.58" y2="64.826"/>
	
		<line fill="none" stroke="#231F20" stroke-width="0.5" stroke-linecap="round" stroke-linejoin="round" stroke-miterlimit="10" x1="83.465" y1="68.46" x2="86.58" y2="67.409"/>
	
		<line fill="none" stroke="#231F20" stroke-width="0.5" stroke-linecap="round" stroke-linejoin="round" stroke-miterlimit="10" x1="83.355" y1="71.578" x2="86.471" y2="70.525"/>
	<path fill="#1C75BC" d="M61.496,42.169c-1.917,0.893-3.691,2.661-5.577,3.771c-1.618,0.954-3.253,1.831-4.946,2.678
		c-1.402,0.701-2.764,1.387-4.173,1.966c-1.218,0.5-3.416,0.416-4.205,1.443c1.569,0.882,5.123-0.086,6.914-0.17
		c2.871-0.135,5.594-0.433,8.274-1.692c1.562-0.734,4.567-1.581,5.53-3.084c0.806-1.253,0.545-5.467-1.403-4.913"/>
</g>
<g id="Layer_3">
	<polygon fill="#C2B59B" stroke="#231F20" stroke-linecap="round" stroke-linejoin="round" stroke-miterlimit="10" points="
		2.667,8.445 2.667,-4.5 8.333,-3.5 8.333,9.666 	"/>
	<polygon fill="#9B8579" stroke="#231F20" stroke-linecap="round" stroke-linejoin="round" stroke-miterlimit="10" points="
		11.833,4.891 8.333,9.666 8.333,-3.5 11.833,-4.5 	"/>
	<polygon fill="#594A42" stroke="#231F20" stroke-linecap="round" stroke-linejoin="round" stroke-miterlimit="10" points="
		5.5,-5.834 2.667,-4.5 8.333,-3.5 11.833,-4.5 	"/>
	<path fill="#C49A6C" stroke="#231F20" stroke-width="0.25" stroke-miterlimit="10" d="M78.534,22.258
		c-0.017,0-0.033-0.001-0.05-0.002l-9.43-0.931c-0.275-0.027-0.476-0.272-0.449-0.547c0.028-0.274,0.281-0.47,0.547-0.448
		l9.43,0.931c0.275,0.027,0.477,0.272,0.449,0.547C79.005,22.065,78.788,22.258,78.534,22.258z"/>
	<path fill="#C49A6C" stroke="#231F20" stroke-width="0.25" stroke-miterlimit="10" d="M72.671,26.834
		c0.039-0.064,0.069-0.135,0.075-0.215l0.507-6.24c0.022-0.275-0.183-0.517-0.458-0.539c-0.268-0.014-0.518,0.183-0.538,0.458
		l-0.507,6.24c-0.006,0.071,0.005,0.139,0.025,0.203L72.671,26.834z"/>
	<path fill="#C49A6C" stroke="#231F20" stroke-width="0.25" stroke-miterlimit="10" d="M76.279,27.393l0.974-6.28
		c0.042-0.273-0.146-0.528-0.418-0.571c-0.269-0.042-0.528,0.146-0.569,0.417l-1.015,6.547c-0.007,0.044,0.001,0.085,0.006,0.128
		C75.6,27.554,75.939,27.473,76.279,27.393z"/>
	<path fill="#C49A6C" stroke="#231F20" stroke-width="0.25" stroke-miterlimit="10" d="M70.955,28.55l0.391-6.456
		c0.018-0.276-0.193-0.513-0.469-0.529c-0.301-0.011-0.514,0.194-0.529,0.469l-0.404,6.691c-0.002,0.021,0.007,0.041,0.009,0.062
		C70.285,28.708,70.62,28.629,70.955,28.55z"/>
	<path fill="#C49A6C" stroke="#231F20" stroke-width="0.25" stroke-miterlimit="10" d="M65.585,29.847l0.377-5.989
		c0.019-0.275-0.192-0.513-0.468-0.53c-0.271-0.018-0.514,0.192-0.53,0.468l-0.378,5.998c-0.007,0.101,0.025,0.191,0.071,0.272
		C64.967,29.993,65.275,29.919,65.585,29.847z"/>
	<path fill="#C49A6C" stroke="#231F20" stroke-width="0.25" stroke-miterlimit="10" d="M60.953,30.939l0.408-6.126
		c0.02-0.275-0.189-0.514-0.465-0.532c-0.295-0.018-0.515,0.191-0.533,0.466l-0.41,6.161c-0.006,0.093,0.021,0.177,0.061,0.254
		C60.326,31.087,60.641,31.013,60.953,30.939z"/>
	<path fill="#C49A6C" stroke="#231F20" stroke-width="0.25" stroke-miterlimit="10" d="M55.727,32.205
		c0.325-0.077,0.65-0.154,0.977-0.23l-0.396-5.733c-0.02-0.275-0.261-0.479-0.533-0.464c-0.274,0.019-0.482,0.258-0.465,0.534
		l0.404,5.842C55.713,32.171,55.723,32.187,55.727,32.205z"/>
	<path fill="#C49A6C" stroke="#231F20" stroke-width="0.25" stroke-miterlimit="10" d="M51.277,33.221
		c0.295-0.069,0.589-0.138,0.882-0.208c0.009-0.047,0.018-0.095,0.012-0.145l-0.651-5.349c-0.033-0.273-0.276-0.476-0.558-0.436
		c-0.274,0.033-0.469,0.283-0.437,0.557l0.652,5.349C51.189,33.079,51.229,33.154,51.277,33.221z"/>
	<path fill="#C49A6C" stroke="#231F20" stroke-width="0.25" stroke-miterlimit="10" d="M47.05,34.166
		c0.304-0.073,0.631-0.125,0.937-0.173c0.002-0.029,0.012-0.057,0.01-0.087l-0.462-5.46c-0.023-0.275-0.266-0.48-0.54-0.456
		c-0.275,0.023-0.479,0.265-0.456,0.54l0.462,5.46C47.006,34.053,47.024,34.112,47.05,34.166z"/>
	<path fill="#C49A6C" stroke="#231F20" stroke-width="0.25" stroke-miterlimit="10" d="M79.02,21.639
		c-0.065-0.268-0.34-0.431-0.604-0.367l-31.917,7.787L34.88,28.053c-0.284-0.035-0.518,0.18-0.541,0.455
		c-0.024,0.275,0.18,0.517,0.455,0.541l11.7,1.013c0.014,0.001,0.028,0.002,0.042,0.002l0,0l0,0h0.001h0.001
		c0.039,0,0.078-0.004,0.117-0.014l31.996-7.807C78.92,22.178,79.084,21.908,79.02,21.639z"/>
	<path fill="#C49A6C" stroke="#231F20" stroke-width="0.25" stroke-miterlimit="10" d="M41.611,33.244
		c0.016-0.056,0.026-0.113,0.021-0.174l-0.409-5.35c-0.021-0.275-0.267-0.481-0.537-0.46c-0.275,0.021-0.481,0.261-0.46,0.537
		l0.398,5.209L41.611,33.244z"/>
</g>
</svg>
