<?xml version="1.0" encoding="utf-8"?>
<!-- Generator: Adobe Illustrator 15.1.0, SVG Export Plug-In . SVG Version: 6.00 Build 0)  -->
<!DOCTYPE svg PUBLIC "-//W3C//DTD SVG 1.1//EN" "http://www.w3.org/Graphics/SVG/1.1/DTD/svg11.dtd">
<svg version="1.1" xmlns="http://www.w3.org/2000/svg" xmlns:xlink="http://www.w3.org/1999/xlink" x="0px" y="0px" width="550px"
	 height="300px" viewBox="-300 -100 550 300" enable-background="new 0 0 100 100" xml:space="preserve">
<g id="Guides" display="none">
	<rect x="100" y="-99.99" display="inline" fill="#FFFFFF" stroke="#231F20" stroke-miterlimit="10" width="100" height="100"/>
	<rect y="-99.99" display="inline" fill="#FFFFFF" stroke="#231F20" stroke-miterlimit="10" width="100" height="100"/>
	<rect x="-100" y="-99.99" display="inline" fill="#FFFFFF" stroke="#231F20" stroke-miterlimit="10" width="100" height="100"/>
	<rect x="-200" y="-99.99" display="inline" fill="#FFFFFF" stroke="#231F20" stroke-miterlimit="10" width="100" height="100"/>
	<rect x="100" y="100" display="inline" fill="#FFFFFF" stroke="#231F20" stroke-miterlimit="10" width="100" height="100"/>
	<rect y="100" display="inline" fill="#FFFFFF" stroke="#231F20" stroke-miterlimit="10" width="100" height="100"/>
	<rect x="-100" y="100" display="inline" fill="#FFFFFF" stroke="#231F20" stroke-miterlimit="10" width="100" height="100"/>
	<rect x="-200" y="100" display="inline" fill="#FFFFFF" stroke="#231F20" stroke-miterlimit="10" width="100" height="100"/>
	<rect x="100" y="0" display="inline" fill="#FFFFFF" stroke="#231F20" stroke-miterlimit="10" width="100" height="100"/>
	<rect display="inline" fill="#FFFFFF" stroke="#231F20" stroke-miterlimit="10" width="100" height="100"/>
	<rect x="-100" display="inline" fill="#FFFFFF" stroke="#231F20" stroke-miterlimit="10" width="100" height="100"/>
	<rect x="-200" display="inline" fill="#FFFFFF" stroke="#231F20" stroke-miterlimit="10" width="100" height="100"/>
</g>
<g id="Layer_6">
	<polygon fill="#E6E7E8" stroke="#231F20" stroke-linecap="round" stroke-linejoin="round" stroke-miterlimit="10" points="
		-217.999,65.598 -210.332,33.287 -92.55,82.669 -88.189,123.333 	"/>
	<polygon fill="#D1D3D4" stroke="#231F20" stroke-linecap="round" stroke-linejoin="round" stroke-miterlimit="10" points="
		-88.189,123.333 -92.55,82.669 190.334,41.07 197.668,75.811 	"/>
	<polygon fill="#D1D3D4" stroke="#231F20" stroke-linecap="round" stroke-linejoin="round" stroke-miterlimit="10" points="
		-92.55,82.669 190.334,41.07 72.553,-8.312 -210.332,33.287 	"/>
	<polygon fill="#A7A9AC" stroke="#231F20" stroke-linecap="round" stroke-linejoin="round" stroke-miterlimit="10" points="
		-164.271,52.877 -122.667,45.695 -100.949,55.279 -140.661,62.077 -144.567,98.032 -170.151,86.731 	"/>
	<polygon fill="#939598" stroke="#231F20" stroke-miterlimit="10" points="-92.55,82.669 -88.189,123.333 -38.334,115.666 
		-46,75.823 	"/>
	<polygon fill="#939598" stroke="#231F20" stroke-miterlimit="10" points="-38.334,115.666 -2.001,108.666 -8.856,70.867 
		-46,75.823 	"/>
	<polygon fill="#939598" stroke="#231F20" stroke-miterlimit="10" points="-2.001,108.666 33.314,103 23.61,65.095 -8.856,70.867 	
		"/>
	<polygon fill="#939598" stroke="#231F20" stroke-miterlimit="10" points="33.314,103 67.088,96.743 58.474,59.877 23.61,65.095 	
		"/>
	<polygon fill="#939598" stroke="#231F20" stroke-miterlimit="10" points="67.088,96.743 100,91.733 92.906,55.055 58.474,59.877 	
		"/>
	<polygon fill="#939598" stroke="#231F20" stroke-miterlimit="10" points="100,91.733 133.332,86.658 127.332,50 92.906,55.055 	"/>
	<polygon fill="#939598" stroke="#231F20" stroke-miterlimit="10" points="133.332,86.658 167.764,80.607 160.332,45.695 
		127.332,50 	"/>
	<polygon fill="#939598" stroke="#231F20" stroke-miterlimit="10" points="167.764,80.607 197.668,75.811 190.334,41.749 
		160.332,45.695 	"/>
	<polygon fill="#E6E7E8" stroke="#231F20" stroke-linecap="round" stroke-linejoin="round" stroke-miterlimit="10" points="
		-122.667,45.695 -170.151,86.731 -144.567,98.032 -140.661,62.077 -100.949,55.279 	"/>
</g>
<g id="Layer_5">
	<g>
		<path fill="#C49A6C" stroke="#231F20" stroke-miterlimit="10" d="M-88.189-35.378v59.296c0,0.817-1.723,1.48-3.848,1.48
			s-3.848-0.663-3.848-1.48v-59.296"/>
		<ellipse fill="#C49A6C" stroke="#231F20" stroke-miterlimit="10" cx="-92.037" cy="-35.378" rx="3.848" ry="1.48"/>
	</g>
	<g>
		<path fill="#C49A6C" stroke="#231F20" stroke-miterlimit="10" d="M-48.522-41.1v59.296c0,0.818-1.723,1.48-3.848,1.48
			s-3.848-0.662-3.848-1.48V-41.1"/>
		<ellipse fill="#C49A6C" stroke="#231F20" stroke-miterlimit="10" cx="-52.37" cy="-41.1" rx="3.848" ry="1.48"/>
	</g>
	<polygon fill="#00280D" stroke="#231F20" stroke-linecap="round" stroke-linejoin="round" stroke-miterlimit="10" points="
		-52.37,-55.784 10.712,-86.667 106.234,-93.389 110.666,-67.968 	"/>
	<polygon fill="#BCBEC0" stroke="#231F20" stroke-linecap="round" stroke-linejoin="round" stroke-miterlimit="10" points="
		169.355,-30.681 71.492,-68.612 71.492,-55.578 169.355,-17.647 	"/>
	<polygon fill="#603913" stroke="#231F20" stroke-linecap="round" stroke-linejoin="round" stroke-miterlimit="10" points="
		71.492,-67.968 -144.231,-39.667 -144.231,-26.633 71.492,-56.578 	"/>
	<g>
		<path fill="#C49A6C" stroke="#231F20" stroke-miterlimit="10" d="M-127.855-29.657V29.64c0,0.816-1.723,1.48-3.848,1.48
			s-3.848-0.664-3.848-1.48v-59.296"/>
		<ellipse fill="#C49A6C" stroke="#231F20" stroke-miterlimit="10" cx="-131.703" cy="-29.657" rx="3.848" ry="1.48"/>
	</g>
	<g>
		<path fill="#C49A6C" stroke="#231F20" stroke-miterlimit="10" d="M30.81-51.542V7.753c0,0.817-1.724,1.48-3.849,1.48
			s-3.848-0.663-3.848-1.48v-59.295"/>
		<ellipse fill="#C49A6C" stroke="#231F20" stroke-miterlimit="10" cx="26.962" cy="-51.542" rx="3.848" ry="1.48"/>
	</g>
	<g>
		<path fill="#C49A6C" stroke="#231F20" stroke-miterlimit="10" d="M-8.856-45.821v59.296c0,0.816-1.723,1.48-3.848,1.48
			s-3.848-0.664-3.848-1.48v-59.296"/>
		<ellipse fill="#C49A6C" stroke="#231F20" stroke-miterlimit="10" cx="-12.704" cy="-45.821" rx="3.848" ry="1.48"/>
	</g>
	<g>
		<path fill="#C49A6C" stroke="#231F20" stroke-miterlimit="10" d="M70.477-57.264V2.032c0,0.817-1.723,1.48-3.848,1.48
			s-3.848-0.663-3.848-1.48v-59.296"/>
		<ellipse fill="#C49A6C" stroke="#231F20" stroke-miterlimit="10" cx="66.629" cy="-57.264" rx="3.848" ry="1.48"/>
	</g>
	<polygon fill="#6D6E71" stroke="#231F20" stroke-linecap="round" stroke-linejoin="round" stroke-miterlimit="10" points="
		165.333,-20.86 70.476,-9.417 70.476,50.979 165.333,37.893 	"/>
	<polygon fill="#BCBEC0" stroke="#231F20" stroke-linecap="round" stroke-linejoin="round" stroke-miterlimit="10" points="
		70.476,-15.175 -18.524,-50.099 -18.524,16.056 70.476,50.979 	"/>
	<g>
		<path fill="#C49A6C" stroke="#231F20" stroke-miterlimit="10" d="M3.296,3.858v59.296c0,0.817-1.723,1.48-3.848,1.48
			s-3.848-0.663-3.848-1.48V3.858"/>
		<ellipse fill="#C49A6C" stroke="#231F20" stroke-miterlimit="10" cx="-0.552" cy="3.858" rx="3.848" ry="1.48"/>
	</g>
	<g>
		<path fill="#C49A6C" stroke="#231F20" stroke-miterlimit="10" d="M42.962-1.863v59.296c0,0.818-1.723,1.48-3.848,1.48
			s-3.848-0.662-3.848-1.48V-1.863"/>
		<ellipse fill="#C49A6C" stroke="#231F20" stroke-miterlimit="10" cx="39.115" cy="-1.863" rx="3.848" ry="1.48"/>
	</g>
	<g>
		<path fill="#C49A6C" stroke="#231F20" stroke-miterlimit="10" d="M-36.37,9.58v59.296c0,0.816-1.723,1.48-3.848,1.48
			s-3.848-0.664-3.848-1.48V9.58"/>
		<ellipse fill="#C49A6C" stroke="#231F20" stroke-miterlimit="10" cx="-40.218" cy="9.58" rx="3.848" ry="1.48"/>
	</g>
	<g>
		<path fill="#C49A6C" stroke="#231F20" stroke-miterlimit="10" d="M122.295-13.306v59.295c0,0.817-1.724,1.48-3.849,1.48
			s-3.848-0.663-3.848-1.48v-59.295"/>
		<ellipse fill="#C49A6C" stroke="#231F20" stroke-miterlimit="10" cx="118.447" cy="-13.306" rx="3.848" ry="1.48"/>
	</g>
	<g>
		<path fill="#C49A6C" stroke="#231F20" stroke-miterlimit="10" d="M82.629-7.585v59.296c0,0.816-1.723,1.48-3.848,1.48
			s-3.848-0.664-3.848-1.48V-7.585"/>
		<ellipse fill="#C49A6C" stroke="#231F20" stroke-miterlimit="10" cx="78.781" cy="-7.585" rx="3.848" ry="1.48"/>
	</g>
	<g>
		<path fill="#C49A6C" stroke="#231F20" stroke-miterlimit="10" d="M161.961-19.028v59.296c0,0.817-1.723,1.48-3.848,1.48
			s-3.848-0.663-3.848-1.48v-59.296"/>
		<ellipse fill="#C49A6C" stroke="#231F20" stroke-miterlimit="10" cx="158.113" cy="-19.028" rx="3.848" ry="1.48"/>
	</g>
	<g>
		<polygon fill="#282828" stroke="#231F20" stroke-linecap="round" stroke-linejoin="round" stroke-miterlimit="10" points="
			29.148,-16.903 7.481,-25.405 7.481,26.044 29.148,34.546 		"/>
		<polygon fill="#6D6E71" stroke="#231F20" stroke-linecap="round" stroke-linejoin="round" stroke-miterlimit="10" points="
			11.766,-23.724 7.481,-25.405 7.481,26.044 11.766,24.801 		"/>
		
			<line fill="#6D6E71" stroke="#231F20" stroke-linecap="round" stroke-linejoin="round" stroke-miterlimit="10" x1="11.765" y1="11.537" x2="29.147" y2="9.139"/>
	</g>
	<polygon fill="#C49A6C" stroke="#231F20" stroke-linecap="round" stroke-linejoin="round" stroke-miterlimit="10" points="
		170.355,-30.681 160.421,-33.973 -43.176,-7.263 -120.337,-37.17 82.629,-63.797 73.154,-67.968 -143.667,-39.416 -50.008,-3.042 
		-45.368,-0.736 	"/>
	<polygon fill="#603913" stroke="#231F20" stroke-linecap="round" stroke-linejoin="round" stroke-miterlimit="10" points="
		169.724,-29.786 -46,-1.485 -46,11.549 169.724,-18.396 	"/>
	<polygon fill="#8B5E3C" stroke="#231F20" stroke-linecap="round" stroke-linejoin="round" stroke-miterlimit="10" points="
		-45.804,-1.485 -143.667,-39.416 -143.667,-26.382 -45.804,11.549 	"/>
	<polygon fill="#8B5E3C" stroke="#231F20" stroke-linecap="round" stroke-linejoin="round" stroke-miterlimit="10" points="
		64.088,-29.786 -27.746,-63.689 -42.183,-56.545 74.934,-11.826 	"/>
	<polygon fill="#C49A6C" stroke="#231F20" stroke-linecap="round" stroke-linejoin="round" stroke-miterlimit="10" points="
		-18.524,-63.689 -27.746,-63.689 62.781,-30.269 73.476,-30.269 	"/>
	<polygon fill="#939598" stroke="#231F20" stroke-linecap="round" stroke-linejoin="round" stroke-miterlimit="10" points="
		-16.551,-63.689 20.233,-83.738 73.476,-30.269 	"/>
	<polygon fill="#006838" stroke="#231F20" stroke-linecap="round" stroke-linejoin="round" stroke-miterlimit="10" points="
		180,-23.333 106.234,-93.389 10.712,-86.667 74.934,-9.064 	"/>
	<path fill="#939598" stroke="#231F20" stroke-linecap="round" stroke-linejoin="round" stroke-miterlimit="10" d="M-52.37,34.291
		c0,7.334-10.074,13.28-22.5,13.28s-22.5-5.946-22.5-13.28"/>
	
		<ellipse fill="#58595B" stroke="#231F20" stroke-linecap="round" stroke-linejoin="round" stroke-miterlimit="10" cx="-74.87" cy="34.291" rx="22.5" ry="7.504"/>
</g>
</svg>
