<?xml version="1.0" encoding="utf-8"?>
<!-- Generator: Adobe Illustrator 15.1.0, SVG Export Plug-In . SVG Version: 6.00 Build 0)  -->
<!DOCTYPE svg PUBLIC "-//W3C//DTD SVG 1.1//EN" "http://www.w3.org/Graphics/SVG/1.1/DTD/svg11.dtd">
<svg version="1.1" xmlns="http://www.w3.org/2000/svg" xmlns:xlink="http://www.w3.org/1999/xlink" x="0px" y="0px" width="100px"
	 height="100px" viewBox="0 0 100 100" enable-background="new 0 0 100 100" xml:space="preserve">
<g id="Layer_2">
	<polygon fill="#C49A6C" stroke="#231F20" stroke-linecap="round" stroke-linejoin="round" stroke-miterlimit="10" points="
		3.489,-2.03 69.273,20.144 97.46,9.543 36.439,-11.743 	"/>
	<path fill="#C49A6C" stroke="#231F20" stroke-linecap="round" stroke-linejoin="round" stroke-miterlimit="10" d="M22.381,38.623"
		/>
	<polygon fill="#A97C50" stroke="#231F20" stroke-linecap="round" stroke-linejoin="round" stroke-miterlimit="10" points="
		69.273,85.896 69.273,20.144 97.46,9.543 97.46,75.295 	"/>
	<polygon fill="#603913" stroke="#231F20" stroke-linecap="round" stroke-linejoin="round" stroke-miterlimit="10" points="
		88.38,35.816 88.38,24.901 93.06,23.141 93.06,34.054 	"/>
	<polygon fill="#603913" stroke="#231F20" stroke-linecap="round" stroke-linejoin="round" stroke-miterlimit="10" points="
		77.33,40.187 77.33,29.273 82.01,27.513 82.01,38.426 	"/>
	<polygon fill="#603913" stroke="#231F20" stroke-linecap="round" stroke-linejoin="round" stroke-miterlimit="10" points="
		88.38,62.73 88.38,51.816 93.06,50.058 93.06,60.972 	"/>
	<polygon fill="#603913" stroke="#231F20" stroke-linecap="round" stroke-linejoin="round" stroke-miterlimit="10" points="
		77.33,67.103 77.33,56.188 82.01,54.43 82.01,65.344 	"/>
	<polygon fill="#C49A6C" stroke="#231F20" stroke-linecap="round" stroke-linejoin="round" stroke-miterlimit="10" points="
		3.489,63.725 3.489,-2.03 69.273,20.144 69.273,85.896 	"/>
	<path fill="#D49553" stroke="#231F20" stroke-miterlimit="10" d="M0.605-2.396C0.322,1.734,9.898,4.031,12.906,5.026
		C18.14,6.758,23.604,7.227,28.649,9.55c4.781,2.202,8.969,4.898,14.148,6.414c4.818,1.411,9.465,2.311,14.128,4.519
		c5.312,2.514,10.313,5.688,16.29,3.023c4.181-1.865,8.272-4.265,12.545-6.087c3.649-1.556,10.28-1.371,12.619-4.853
		c2.94-4.374-4.349-7.66-6.799-10.149c-4.234-4.31-8.322-7.164-14.421-8.268C71.86-6.81,66.594-6.394,61.731-9.07
		c-4.437-2.441-8.222-6-13.328-7.273c-5.039-1.256-10.671-2.157-15.75-2.884c-6.208-0.89-14.796-0.947-19.493,3.551
		c-2.129,2.04-3.653,4.85-5.667,7.083C5.399-6.271,1.79-4.952,0.605-2.128"/>
	<polygon fill="#603913" stroke="#231F20" stroke-linecap="round" stroke-linejoin="round" stroke-miterlimit="10" points="
		46.245,34.874 46.245,23.96 41.565,22.2 41.565,33.115 	"/>
	<polygon fill="#603913" stroke="#231F20" stroke-linecap="round" stroke-linejoin="round" stroke-miterlimit="10" points="
		57.295,39.246 57.295,28.333 52.615,26.572 52.615,37.487 	"/>
	<polygon fill="#603913" stroke="#231F20" stroke-linecap="round" stroke-linejoin="round" stroke-miterlimit="10" points="
		46.245,61.79 46.245,50.875 41.565,49.117 41.565,60.031 	"/>
	<polygon fill="#603913" stroke="#231F20" stroke-linecap="round" stroke-linejoin="round" stroke-miterlimit="10" points="
		57.295,66.162 57.295,55.248 52.615,53.489 52.615,64.403 	"/>
	<polygon fill="#603913" stroke="#231F20" stroke-linecap="round" stroke-linejoin="round" stroke-miterlimit="10" points="
		17.963,24.543 17.963,13.63 13.284,11.87 13.284,22.785 	"/>
	<polygon fill="#603913" stroke="#231F20" stroke-linecap="round" stroke-linejoin="round" stroke-miterlimit="10" points="
		29.014,28.916 29.014,18.002 24.334,16.242 24.334,27.157 	"/>
	<polygon fill="#603913" stroke="#231F20" stroke-linecap="round" stroke-linejoin="round" stroke-miterlimit="10" points="
		17.963,51.459 17.963,40.545 13.284,38.786 13.284,49.701 	"/>
	<polygon fill="#603913" stroke="#231F20" stroke-linecap="round" stroke-linejoin="round" stroke-miterlimit="10" points="
		29.014,55.831 29.014,44.917 24.334,43.159 24.334,54.072 	"/>
</g>
<g id="Layer_3">
	<path fill="#3C2415" stroke="#231F20" stroke-linecap="round" stroke-linejoin="round" stroke-miterlimit="10" d="M25.547,52.944
		c-0.034,0.653,0.295,1.297,0.352,1.948c0.031,0.354-0.002,0.698,0.075,1.05c0.26,1.18,0.893,2.002,1.607,2.94
		c0.54,0.709,1.093,1.413,1.646,2.1c0.493,0.612,1.113,1.235,1.42,1.977c0.495,1.199,0.419,2.575,0.932,3.771
		c0.348,0.812,0.727,1.628,1.17,2.392c0.332,0.572,0.77,1.069,0.839,1.734c0.091,0.876-0.047,1.459-0.964,1.784
		c-0.229,0.081-0.453,0.102-0.684,0.159c-1.032,0.259-2.218,1.001-3.323,0.625c-1.203-0.407-2.038-2.219-2.662-3.189
		c-2.368-3.687-5.708-7.304-6.576-11.721c-0.492-2.505,0.367-4.444,2.587-5.673"/>
	<path fill="#C2B59B" stroke="#231F20" stroke-linecap="round" stroke-linejoin="round" stroke-miterlimit="10" d="M24.686,53.239
		c0.498-0.554,1.458-0.593,2.125-0.812l-14.248-4.971l-18.488,5.943l25.117,8.466l6.455-2.433c-0.879-0.644-1.535-0.456-2.254-0.94"
		/>
	<path fill="#C49A6C" stroke="#231F20" stroke-linecap="round" stroke-linejoin="round" stroke-miterlimit="10" d="M24.619,53.423
		l-11.783-4.08l-12.941,4.161l19.297,6.477c1.038-0.391,2.076-0.782,3.113-1.173c0.832-0.313,1.119-0.236,1.176-1.047
		c0.073-1.021-0.192-1.812,0.723-2.589"/>
	<path fill="#C49A6C" stroke="#231F20" stroke-linecap="round" stroke-linejoin="round" stroke-miterlimit="10" d="M24.422,54.938"
		/>
	<polygon fill="#C49A6C" stroke="#231F20" stroke-linecap="round" stroke-linejoin="round" stroke-miterlimit="10" points="
		-5.925,85.076 -5.925,53.399 19.192,61.865 19.192,93.542 	"/>
	<polyline fill="none" stroke="#231F20" stroke-linecap="round" stroke-linejoin="round" stroke-miterlimit="10" points="
		24.619,53.422 12.836,49.342 12.836,50.93 24.422,54.938 	"/>
	<polygon fill="#603913" stroke="#231F20" stroke-linecap="round" stroke-linejoin="round" stroke-miterlimit="10" points="
		2.234,72.535 2.234,62.66 -2.445,61.07 -2.445,70.943 	"/>
	<polygon fill="#603913" stroke="#231F20" stroke-linecap="round" stroke-linejoin="round" stroke-miterlimit="10" points="
		13.285,76.49 13.285,66.616 8.605,65.025 8.605,74.899 	"/>
	<path fill="#C2B59B" stroke="#231F20" stroke-linecap="round" stroke-linejoin="round" stroke-miterlimit="10" d="M24.645,53.492
		c-0.105,1.438,0.112,2.592,0.646,3.919c0.237,0.587,0.302,1.289,0.584,1.85c0.465,0.926,1.401,1.217,2.126,1.877
		c1.066,0.972,1.36,2.214,1.557,3.525c0.187,1.248,0.605,2.533,1.106,3.728c0.479,1.141,1.473,1.794,2.159,2.771
		c-0.341,0.373-1.253,0.367-1.514,0.809c-0.382,0.646,0.56,1.297,1.087,1.435c0.651,0.171,1.469-0.014,2.079-0.245
		c0.886-0.337,0.864-0.593,1.088-1.334v-0.083c0.111-0.562-1.409-1.574-1.729-2.186c-0.39-0.744-0.763-1.231-1.252-1.916
		c-0.73-1.021-0.941-2.817-1.19-4.069c-0.142-0.717-0.044-1.29-0.475-1.916c-0.414-0.602-1.16-1.366-1.708-1.834
		c-1.187-1.013-2.051-1.564-2.234-3.246c-0.127-1.171-0.724-2.972-0.246-4.083L24.645,53.492z"/>
	<path fill="#8B5E3C" stroke="#231F20" stroke-linecap="round" stroke-linejoin="round" stroke-miterlimit="10" d="M35.86,72.007
		v15.252l-16.668,6.283V61.865c1.158-0.437,2.316-0.873,3.474-1.31c0.737-0.278,1.497-0.659,2.26-0.853
		c0.345-0.087,0.476-0.266,0.791-0.09c0.413,0.23,0.597,1.459,0.557,1.868c-0.09,0.938-0.328,1.652-0.135,2.612
		c0.275,1.373,1.302,2.17,1.899,3.35c0.326,0.645,0.423,1.313,0.665,1.979c0.479,1.322,1.786,2.408,3.104,2.829
		c1.008,0.32,3.108,0.234,3.982-0.412"/>
	<polyline fill="#754C29" stroke="#231F20" stroke-linecap="round" stroke-linejoin="round" stroke-miterlimit="10" points="
		2.305,54.316 12.836,50.93 12.836,49.343 -0.105,53.504 	"/>
</g>
</svg>
