<?xml version="1.0" encoding="utf-8"?>
<!-- Generator: Adobe Illustrator 15.1.0, SVG Export Plug-In . SVG Version: 6.00 Build 0)  -->
<!DOCTYPE svg PUBLIC "-//W3C//DTD SVG 1.1//EN" "http://www.w3.org/Graphics/SVG/1.1/DTD/svg11.dtd">
<svg version="1.1" xmlns="http://www.w3.org/2000/svg" xmlns:xlink="http://www.w3.org/1999/xlink" x="0px" y="0px" width="200px"
	 height="150px" viewBox="-50 -50 200 150" enable-background="new 0 0 100 100" xml:space="preserve">
<g id="Layer_2">
	<polyline fill="#8B5E3C" stroke="#231F20" stroke-width="0.9284" stroke-miterlimit="10" points="115.397,-3.037 115.397,36.321 
		94.352,45.523 94.352,-8.516 106.763,-10.497 	"/>
	<polyline fill="#A97C50" stroke="#231F20" stroke-width="0.9284" stroke-miterlimit="10" points="32.575,0.881 32.575,34.772 
		94.352,45.523 94.352,7.335 	"/>
	
		<path fill="#3C2415" stroke="#231F20" stroke-width="0.9284" stroke-linecap="round" stroke-linejoin="round" stroke-miterlimit="10" d="
		M107.213-13.732c0.694,1.481,2.25,2.627,3.035,3.808c0.972,1.463,2.241,2.694,3.427,4.021c1.273,1.425,2.526,2.578,4.046,3.694
		c1.274,0.937,2.692,1.724,3.543,3.097c-0.747,1.298-4.207,1.541-5.56,1.608c-0.051-0.977-0.275-2.255-0.076-3.161
		c-2.84-2.56-5.583-6.087-9.181-7.548L107.213-13.732z"/>
	
		<path fill="#754C29" stroke="#231F20" stroke-width="0.9284" stroke-linecap="round" stroke-linejoin="round" stroke-miterlimit="10" d="
		M97.795,6.288c4.72-3.406,9.568-14.196,9.167-19.926c-5.886,1.844-18.851,1.604-24.999,1.672
		c-7.119,0.079-26.084-1.134-30.792-3.169c-1.035-0.448-3.486,3.11-4.416,4.112c-2.036,2.195-3.104,3.413-5.559,5.32
		c-3.766,2.927-7.411,5.758-11.951,4.944c6.101,6.207,22.049,8.252,32.454,9.131C73.198,9.343,86.705,10.199,97.795,6.288
		C98.946,5.458,97.069,6.545,97.795,6.288z"/>
	<polygon fill="#3C2415" stroke="#231F20" stroke-width="0.9284" stroke-miterlimit="10" points="44.518,36.85 44.518,12.452 
		54.574,14.154 54.574,38.575 	"/>
	<polygon fill="#603913" stroke="#231F20" stroke-width="0.9284" stroke-miterlimit="10" points="42.135,36.248 44.454,11.117 
		54.651,13.828 52.331,38.981 	"/>
	
		<path fill="#C0A28D" stroke="#231F20" stroke-width="0.9284" stroke-linecap="round" stroke-linejoin="round" stroke-miterlimit="10" d="
		M71.851,18.81c-0.184,5.007,0.973,10.24,0.716,15.183c2.154,0.776,1.717-4.259,1.977-5.349c0.652-2.734,1.824-5.937,3.11-8.326"/>
</g>
<g id="Layer_3">
	<polyline fill="#C49A6C" stroke="#231F20" stroke-miterlimit="10" points="7.238,23.907 7.238,66.301 29.908,76.213 29.908,18.005 
		16.539,15.872 	"/>
	<polyline fill="#A97C50" stroke="#231F20" stroke-miterlimit="10" points="96.449,28.126 96.449,64.633 29.908,76.213 
		29.908,35.079 	"/>
	<path fill="#3C2415" stroke="#231F20" stroke-linecap="round" stroke-linejoin="round" stroke-miterlimit="10" d="M16.055,12.386
		c-0.748,1.595-2.424,2.83-3.27,4.101c-1.047,1.576-2.414,2.902-3.691,4.332c-1.371,1.535-2.721,2.776-4.357,3.979
		c-1.373,1.009-2.9,1.857-3.816,3.335c0.805,1.398,4.531,1.66,5.988,1.733c0.055-1.053,0.297-2.429,0.082-3.405
		c3.059-2.757,6.014-6.557,9.889-8.13L16.055,12.386z"/>
	<path fill="#754C29" stroke="#231F20" stroke-linecap="round" stroke-linejoin="round" stroke-miterlimit="10" d="M26.199,33.951
		c-5.084-3.669-10.307-15.292-9.875-21.463c6.34,1.986,20.305,1.728,26.928,1.801c7.667,0.085,28.096-1.222,33.167-3.414
		c1.115-0.482,3.755,3.35,4.757,4.43c2.193,2.364,3.344,3.676,5.988,5.73c4.057,3.153,7.982,6.202,12.873,5.325
		c-6.571,6.686-23.75,8.889-34.957,9.835C52.692,37.242,38.145,38.164,26.199,33.951C24.959,33.057,26.98,34.227,26.199,33.951z"/>
	<polygon fill="#3C2415" stroke="#231F20" stroke-miterlimit="10" points="83.586,66.871 83.586,40.59 72.753,42.424 72.753,68.729 
			"/>
	<polygon fill="#8B5E3C" stroke="#231F20" stroke-miterlimit="10" points="86.152,66.223 83.654,39.152 72.67,42.072 75.17,69.166 	
		"/>
	<polyline fill="#3C2415" stroke="#231F20" stroke-linecap="round" stroke-linejoin="round" stroke-miterlimit="10" points="
		56.145,56.313 42.77,57.813 42.77,43.438 	"/>
	<path fill="#C0A28D" stroke="#231F20" stroke-linecap="round" stroke-linejoin="round" stroke-miterlimit="10" d="M54.145,47.438
		c0.197,5.394-1.048,11.03-0.771,16.354c-2.32,0.836-1.849-4.587-2.129-5.761c-0.702-2.945-1.964-6.395-3.35-8.968"/>
	<path fill="#C0A28D" stroke="#231F20" stroke-linecap="round" stroke-linejoin="round" stroke-miterlimit="10" d="M58.52,39.592
		c-2.178-1.871-5.505,0.398-7.75,0.847c-2.079,0.416-5.282,1.435-7.318,1c-2.25-0.48-3.606-2.047-3.432,1.028
		c0.124,2.156,0.514,3.972,1.909,5.72c1.476,1.848,3.214,3.65,4.315,5.753c0.549,1.047,2.407,5.989,3.525,3.277
		c0.774-1.88-0.959-4.86,0.653-6.469c1.985-1.981,3.271,3.453,3.753,4.594c0.721,1.708,1.855,4.051,3.6,4.976
		c2.252,1.193,0.497-3.393,0.366-4.598c-0.244-2.254-0.513-4.521-0.149-6.753c0.352-2.165,0.936-4.239,1.149-6.375
		C59.245,41.558,58.836,40.583,58.52,39.592z"/>
	<path fill="#C0A28D" stroke="#231F20" stroke-linecap="round" stroke-linejoin="round" stroke-miterlimit="10" d="M48.645,42.688
		c-1.844-0.623-3.665-2.273-5.507-2.875c-0.96-0.314-1.735-0.629-2.838-0.625c-1.823,0.007-1.968,0.651-2.03,2.25
		c-0.115,2.934,3.25,10.379,5,10.375c2.043-0.005,1.211-2.721,1.5-4.125"/>
</g>
</svg>
