<svg xmlns="http://www.w3.org/2000/svg" xmlns:xlink="http://www.w3.org/1999/xlink" x="0" y="0" width="110" height="100" viewBox="-55 -50 110 100">
	<g>
		<polygon fill="#505050" points="7.335,7.011 -8.394,7.828 -1.16,-16.692"/>
		<polygon fill="#505050" points="-25.614,9.426 -17.234,10.578 -16.743,3.444"/>
		<polygon fill="#505050" points="-53.167,9.018 -35.603,7.011 -39.505,2.032"/>
		<polygon fill="#505050" points="-16.315,-2.798 -39.505,2.032 -16.743,3.444"/>
		<polygon fill="#505050" points="-48.102,-3.127 -44.385,-12.605 -35.603,-3.127"/>
		<polygon fill="#505050" points="34.199,-20.036 23.062,-31.554 21.111,-23.083"/>
		<polygon fill="#505050" points="8.273,-28.027 3.617,-41.734 -1.25,-16.392"/>
		<polygon fill="#505050" points="3.617,-41.734 -8.394,-49.536 -7.476,-37.796"/>
		<polygon fill="#505050" points="-39.505,-34.155 -30.551,-27.764 -44.385,-12.605"/>
		<polygon fill="#505050" points="-49.609,-39.208 -30.236,-48.57 -20.967,-42.747"/>
		<polygon fill="#505050" points="34.199,-48.125 48.85,-39.208 34.042,-20.036"/>
		<polygon fill="#505050" points="53.901,-11.862 21.333,-1.98 34.199,-20.036"/>
		<polygon fill="#505050" points="45.291,9.018 34.199,16.225 53.901,-11.862"/>
		<polygon fill="#505050" points="21.111,-23.083 6.071,-12.605 21.571,20.832"/>
		<polygon fill="#282828" points="-17.234,10.578 -8.394,7.828 -16.315,-2.798"/>
		<polygon fill="#282828" points="-16.315,-2.798 -1.16,-16.692 -24.466,-8.519"/>
		<polygon fill="#282828" points="-1.25,-16.392 8.483,-28.285 8.286,-22.192 7.335,7.011"/>
		<polygon fill="#282828" points="3.617,-41.734 -1.25,-16.392 -7.476,-37.796"/>
		<polygon fill="#282828" points="-18.382,-46.787 -30.551,-27.764 -17.234,-18.179"/>
		<polygon fill="#282828" points="23.062,-31.554 34.199,-48.125 34.041,-19.814"/>
		<polygon fill="#282828" points="53.901,-11.862 48.85,-39.208 34.042,-20.036"/>
		<polygon fill="#282828" points="34.199,16.225 53.901,-11.862 29.606,2.665"/>
		<polygon fill="#8C8C8C" points="-35.603,7.011 -16.743,3.444 -25.614,9.426"/>
		<polygon fill="#8C8C8C" points="-48.102,-3.127 -53.167,9.018 -39.505,2.032"/>
		<polygon fill="#8C8C8C" points="-44.385,-12.605 -24.466,-8.519 -35.603,-3.127"/>
		<polygon fill="#8C8C8C" points="-1.16,-16.692 -17.234,-18.179 -24.466,-8.519"/>
		<polygon fill="#8C8C8C" points="-18.382,-46.787 -7.476,-37.796 -17.234,-18.179"/>
		<polygon fill="#8C8C8C" points="-17.234,-18.179 -30.551,-27.764 -44.385,-12.605"/>
		<polygon fill="#8C8C8C" points="-49.609,-39.208 -44.385,-12.605 -39.505,-34.155"/>
		<polygon fill="#8C8C8C" points="15.141,-43.666 8.273,-28.285 3.617,-41.734"/>
		<polygon fill="#8C8C8C" points="15.141,-43.666 34.199,-48.125 23.062,-31.554"/>
		<polygon fill="#8C8C8C" points="-2.309,14.738 4.694,17.934 6.071,-12.605"/>
		<polygon fill="#8C8C8C" points="34.199,-20.036 21.111,-23.083 21.333,-1.98"/>
		<polygon fill="#8C8C8C" points="21.333,-1.98 29.606,2.665 21.571,20.832"/>
		<polygon fill="#8C8C8C" points="53.901,-11.862 29.606,2.665 21.333,-1.98"/>
		<polygon fill="#646464" points="-39.505,2.032 -16.743,3.444 -35.603,7.011"/>
		<polygon fill="#646464" points="-24.466,-8.519 -35.603,-3.127 -16.315,-2.798"/>
		<polygon fill="#646464" points="-8.394,7.828 -1.16,-16.692 -16.315,-2.798"/>
		<polygon fill="#646464" points="21.111,-23.083 7.335,7.828 8.483,-28.285"/>
		<polygon fill="#646464" points="-7.476,-37.796 -1.25,-16.392 -17.234,-18.179"/>
		<polygon fill="#646464" points="-30.551,-27.764 -20.967,-42.747 -39.505,-34.155"/>
		<polygon fill="#646464" points="8.617,-28.229 23.062,-31.554 15.141,-43.666"/>
		<polygon fill="#646464" points="21.571,20.832 4.694,17.934 6.071,-12.605"/>
		<polygon fill="#646464" points="34.199,16.225 29.606,2.665 21.571,20.832"/>
		<polygon fill="#787878" points="-48.102,-3.127 -16.315,-2.798 -39.505,2.032"/>
		<polygon fill="#787878" points="-17.234,-18.179 -44.385,-12.605 -24.466,-8.519"/>
		<polygon fill="#787878" points="23.062,-31.554 8.483,-28.285 21.111,-23.083"/>
		<polygon fill="#787878" points="-8.394,-49.536 -7.476,-37.796 -18.382,-46.787"/>
		<polygon fill="#787878" points="-49.609,-39.208 -20.967,-42.747 -39.505,-34.155"/>
		<polygon fill="#787878" points="-20.967,-42.747 -30.236,-48.57 -18.382,-46.787"/>
	</g>
</svg>