<?xml version="1.0" encoding="utf-8"?>
<!-- Generator: Adobe Illustrator 15.1.0, SVG Export Plug-In . SVG Version: 6.00 Build 0)  -->
<!DOCTYPE svg PUBLIC "-//W3C//DTD SVG 1.1//EN" "http://www.w3.org/Graphics/SVG/1.1/DTD/svg11.dtd">
<svg version="1.1" id="Layer_1" xmlns="http://www.w3.org/2000/svg" xmlns:xlink="http://www.w3.org/1999/xlink" x="0px" y="0px"
	 width="100px" height="100px" viewBox="0 0 100 100" enable-background="new 0 0 100 100" xml:space="preserve">
<ellipse fill="#696969" stroke="#000000" cx="50" cy="65" rx="30" ry="10"/>
<line fill="none" stroke="#000000" stroke-width="3" x1="64.188" y1="57.861" x2="42.952" y2="73.068"/>
<line fill="none" stroke="#000000" stroke-width="3" x1="69.837" y1="59.855" x2="51.217" y2="73.189"/>
<line fill="none" stroke="#000000" stroke-width="3" x1="74.318" y1="62.686" x2="60.065" y2="72.893"/>
<line fill="none" stroke="#000000" stroke-width="3" x1="40.165" y1="56.947" x2="25.769" y2="67.257"/>
<line fill="none" stroke="#000000" stroke-width="3" x1="49.188" y1="56.525" x2="30.096" y2="70.196"/>
<line fill="none" stroke="#000000" stroke-width="3" x1="57.078" y1="56.912" x2="36.26" y2="71.822"/>
<path fill="#696969" d="M49.768,55c-16.568,0-30,4.477-30,10s13.432,10,30,10s30-4.477,30-10S66.336,55,49.768,55z M49.767,71.836
	c-12.43,0-22.507-3.06-22.507-6.835c0-3.776,10.077-6.836,22.507-6.836s22.508,3.06,22.508,6.836
	C72.275,68.776,62.197,71.836,49.767,71.836z"/>
<ellipse fill="none" stroke="#000000" cx="50" cy="65" rx="30" ry="10"/>
<line fill="none" stroke="#696969" stroke-width="2" x1="25.435" y1="61.856" x2="75.471" y2="68.257"/>
</svg>
