<svg xmlns="http://www.w3.org/2000/svg" xmlns:xlink="http://www.w3.org/1999/xlink" x="0" y="0" width="100" height="300" viewBox="-55 -250 110 300">
	<g stroke="black" stroke-width="0.5" stroke-linecap="round" stroke-linejoin="round">
		<path fill="#A7A9AC" stroke="#231F20" d="M45.582-155.828c0,9.873-20.408,17.877-45.583,17.877c-25.174,0-45.581-8.005-45.581-17.877L-48.55,0.188 c0,10.516,21.736,19.041,48.549,19.041c26.814,0,48.55-8.525,48.55-19.041L45.582-155.828z"/>
		<path fill="#E3C058" stroke="#231F20" d="M50.102-156.312c0,10.852-22.432,19.65-50.102,19.65s-50.101-8.798-50.101-19.65c0-10.852,22.43-64.656,50.101-64.656 S50.102-167.164,50.102-156.312z"/>
		<path fill="#A7A9AC" stroke="#231F20" d="M17.687-151.14l-2.492-1.45c0,0,0.559-14.969-2.787-19.397l4.916-2.066L17.687-151.14z"/>
		<polygon fill="#006838" stroke="#231F20" points="27.452,-182.878 36.659,-175.246 33.181,-175.594 24.176,-183.839"/>
		<polyline fill="#A7A9AC" stroke="#231F20" points="17.323,-154.282 17.323,-174.054 25.628,-183.082 33.932,-176.745 33.932,-159.95"/>
		<path fill="#C49A6C" stroke="#231F20" d="M31.942-159.989v-12.628c0,0-1.528-6.764-6.204-5.594c-4.677,1.168-6.073,8.127-6.073,8.127v14.771"/>
		<polygon fill="#8B5E3C" stroke="#231F20" points="17.323,-151.14 25.159,-145.987 40.877,-152.429 40.877,-155.055 17.323,-153.766"/>
		<polygon fill="#C49A6C" stroke="#231F20" points="17.323,-153.766 25.159,-148.613 40.877,-155.055 33.92,-159.95"/>
		<path fill="#006838" stroke="#231F20" d="M16.705-169.982l10.747-12.896l-10.747-3.152c-4.298,3.061-4.298,9.123-4.298,14.042L16.705-169.982z"/>
		<line fill="none" stroke="#231F20" x1="25.738" y1="-178.211" x2="25.738" y2="-156.926"/>
		<path fill="none" stroke="#231F20" d="M33.92-93.165c-1.43,0.139-4.229,0.196-5.417,1.038c-1.664,1.179-0.696,2.601-0.728,4.592c1.35,0.133,2.202-0.548,3.567-0.477"/>
		<path fill="none" stroke="#231F20" d="M34.178-97.029c-0.167,1.231,0.112,2.431,0.297,3.581c1.226-0.386,2.597-0.625,3.568-1.521"/>
		<path fill="none" stroke="#231F20" d="M21.294-92.391c1.268,0,2.893,0.161,3.865-0.258"/>
		<path fill="none" stroke="#231F20" d="M32.889-84.404c-0.05-1.292-0.362-2.375-0.476-3.571c1.004-0.177,1.943-0.567,2.795-1.067"/>
		<path fill="none" stroke="#231F20" d="M27.736-83.888c0.446-3.969-2.079-3.092-5.411-3.092"/>
		<path fill="none" stroke="#231F20" d="M-29.209-42.661c0.973,0.569,1.927,1.024,3.053,1.069c0.06,1.175,0.04,2.381,0.04,3.569"/>
		<path fill="none" stroke="#231F20" d="M-23.798-45.496c1.37,0.421,2.708,0.533,4.084,0.812c0.029,1.517,0.208,2.849,0.336,4.303c1.196,0.023,2.433-0.021,3.568,0.296"/>
		<path fill="none" stroke="#231F20" d="M-19.417-49.618c0,1.274-0.025,2.567,0.039,3.826c1.479,0.08,3.002-0.19,4.341,0.554"/>
		<path fill="none" stroke="#231F20" d="M-27.663-47.042c-1.57-0.101-2.871-0.557-4.341-1.075c-0.099-1.259-0.778-2.376-0.297-3.563"/>
		<path fill="none" stroke="#231F20" d="M-26.117-55.287c-0.359,3.527,1.128,3.356,3.865,4.38"/>
		<path fill="none" stroke="#231F20" d="M-41.062-141.349c0.67,1.562-0.224,2.996,1.289,4.123c0.951,0.709,3.649,0.956,4.896,1.031"/>
		<path fill="none" stroke="#231F20" d="M-28.951-136.968c0.006,1.856-0.341,2.763,1.031,3.665c1.059,0.695,3.316,0.79,4.38,0.457"/>
		<path fill="none" stroke="#231F20" d="M-38.485-131.815c1.528,0.612,3.979,0.226,5.425,1.017c1.962,1.074,1.533,2.475,1.532,4.651"/>
	</g>
</svg>