<svg xmlns="http://www.w3.org/2000/svg" xmlns:xlink="http://www.w3.org/1999/xlink" x="0" y="0" width="110" height="150" viewBox="-5 -50 110 150">
	<g transform="translate(50,50)" stroke="black" stroke-width="0.5" stroke-linecap="round" stroke-linejoin="round">
		<polygon fill="#A97C50" points="-2.433,-12.827 -2.433,10.49 34.844,-6.763 34.844,-31.782 "/>
		<polygon fill="#A97C50" points="-42.703,-38.342 -2.433,-12.827 -2.433,10.49 -44.065,-10.646 "/>
		<path fill="#D4CA30" d="M-18.068-58.959 c-7.336,0.327-36.189,13.577-34.273,25.117c3.046,1.568,6.528,0.78,9.69,0.259c0.357,5.649-5.552,7.862-5.121,13.176 c6.848,0.998,12.912-2.978,19.65-2.131c0.497,7.357-6.899,10.216,3.003,10.317c5.683,0.058,11.251-2.9,16.876-3.214 c0.617,3.664-2.101,8.703,0.843,10.969c2.816,2.165,9.79-1.715,12.312-2.361c3.118-0.801,10.664,0.212,12.955-0.818 c5.67-2.555,0.48-4.425,0.115-9.37c6.434-2.118,16.588-1.404,22.823,0.751c4.537-4.098-2.863-4.829-1.56-8.8 c0.917-2.803,6.229-3.279,8.327-5.639c-1.289-4.023-4.758-2.456-6.61-4.738c-1.827-2.251-1.085-5.335-3.177-7.754 c-4.27-4.937-12.496-4.072-17.644-7.24C6.261-58.969-10.732-59.286-18.068-58.959z"/>
		<ellipse fill="#A97C50" cx="-29.841" cy="-0.125" rx="13.514" ry="19.059"/>
		<polygon fill="#A97C50" points="24.021,12.736 -6.756,2.119 -5.303,-2.37 25.476,8.246 "/>
		<polygon fill="#A97C50" points="51.042,-4.57 33.979,-11.733 35.71,-16.119 52.772,-8.956 "/>
	</g>
</svg>