<svg xmlns="http://www.w3.org/2000/svg" xmlns:xlink="http://www.w3.org/1999/xlink" x="0" y="0" width="100" height="150" viewBox="-50 -100 100 150">
	<g stroke="black" stroke-width="0.5" stroke-linecap="round" stroke-linejoin="round">
		<path fill="#bbbbbb" d=" M-29.265-22.313c0-5.83,12.916-10.557,28.85-10.557c15.937,0,28.853,4.727,28.853,10.557v21.106 c0,5.83-12.916,10.555-28.853,10.555c-15.934,0-28.85-4.725-28.85-10.555V-22.313L-29.265-22.313z"/>
		<ellipse fill="#bbbbbb" cx="-0.415" cy="-22.313" rx="28.852" ry="10.557"/>
		<ellipse fill="#353535" cx="-0.415" cy="-22.313" rx="22.118" ry="8.093"/>
		<polygon fill="#A97C50" points=" -24.844,-55.727 -24.844,-26.573 -22.291,-25.446 -19.738,-26.807 -20.204,-54.438"/>
		<polyline fill="#A97C50" points=" 19.253,-45.893 19.895,-19.078 22.111,-17.356 24.966,-18.846 24.193,-44.436"/>
		<polygon fill="#A97C50" points=" -21.895,-61.347 29.265,-51.979 29.265,-44.042 24.966,-41.482 -27.113,-59.942"/>
		<polygon fill="#A97C50" points=" -27.113,-54.087 24.966,-41.482 23.995,-50.224 -27.113,-59.942"/>
	</g>
</svg>